<svg width="236" height="85" viewBox="0 0 236 85" fill="none" xmlns="http://www.w3.org/2000/svg">
<path d="M74.9079 65.7675V61.056H77.9098V61.9983H76.0252V62.9339H77.7482V63.8627H76.0252V64.8252H77.9704V65.7675H74.9079ZM80.2566 65.0944L80.8556 64.3473C81.0217 64.5201 81.2056 64.6581 81.4076 64.7613C81.6117 64.8622 81.817 64.9127 82.0234 64.9127C82.2052 64.9127 82.3577 64.8678 82.4811 64.7781C82.6045 64.6884 82.6662 64.5728 82.6662 64.4315C82.6662 64.3597 82.6528 64.2957 82.6258 64.2396C82.6012 64.1813 82.5563 64.1241 82.4912 64.068C82.4284 64.0119 82.3375 63.9603 82.2186 63.9132C82.102 63.8661 81.9572 63.8246 81.7845 63.7887C81.3313 63.6922 80.9802 63.5239 80.7311 63.2839C80.4821 63.0416 80.3576 62.742 80.3576 62.3853C80.3576 61.9792 80.5079 61.6427 80.8085 61.3757C81.1092 61.1087 81.4928 60.9752 81.9595 60.9752C82.2669 60.9752 82.5563 61.0279 82.8278 61.1334C83.1015 61.2388 83.3415 61.3858 83.548 61.5742L82.9826 62.3483C82.6348 62.0476 82.3095 61.8973 82.0066 61.8973C81.8585 61.8973 81.734 61.9355 81.633 62.0117C81.5321 62.088 81.4816 62.1834 81.4816 62.2978C81.4816 62.4369 81.5422 62.5547 81.6633 62.6512C81.7845 62.7476 81.9931 62.8295 82.2893 62.8968C83.2899 63.1279 83.7903 63.6215 83.7903 64.3776C83.7903 64.8061 83.6298 65.1584 83.309 65.4343C82.9882 65.7103 82.5608 65.8483 82.0268 65.8483C81.6746 65.8483 81.3447 65.7821 81.0374 65.6497C80.7322 65.5174 80.472 65.3323 80.2566 65.0944ZM87.9304 64.1925H87.3045V65.7675H86.1872V61.056H87.9304C88.424 61.056 88.8245 61.2018 89.1319 61.4935C89.4392 61.7851 89.5929 62.1621 89.5929 62.6242C89.5929 63.0864 89.4392 63.4634 89.1319 63.755C88.8245 64.0467 88.424 64.1925 87.9304 64.1925ZM88.3073 63.119C88.4285 62.9956 88.4891 62.8307 88.4891 62.6242C88.4891 62.4178 88.4285 62.2529 88.3073 62.1295C88.1862 62.0061 88.0202 61.9444 87.8093 61.9444H87.3045V63.3041H87.8093C88.0202 63.3041 88.1862 63.2424 88.3073 63.119ZM91.9583 65.7675V61.056H94.9602V61.9983H93.0756V62.9339H94.7986V63.8627H93.0756V64.8252H95.0208V65.7675H91.9583ZM99.8176 65.8483C99.3442 65.8483 98.9123 65.7417 98.5219 65.5286C98.1338 65.3132 97.8286 65.0193 97.6065 64.6468C97.3844 64.2744 97.2734 63.8627 97.2734 63.4117C97.2734 62.9608 97.3844 62.5491 97.6065 62.1767C97.8286 61.8042 98.1338 61.5114 98.5219 61.2983C98.9123 61.0829 99.3442 60.9752 99.8176 60.9752C100.446 60.9752 100.995 61.1625 101.467 61.5372L100.901 62.3584C100.551 62.0824 100.19 61.9444 99.8176 61.9444C99.416 61.9444 99.0783 62.0847 98.8046 62.3651C98.5331 62.6456 98.3974 62.9944 98.3974 63.4117C98.3974 63.8291 98.5331 64.1779 98.8046 64.4584C99.0783 64.7388 99.416 64.8791 99.8176 64.8791C100.022 64.8791 100.22 64.8375 100.413 64.7545C100.608 64.6715 100.783 64.5616 100.938 64.4247L101.527 65.2392C101.052 65.6452 100.482 65.8483 99.8176 65.8483ZM103.925 61.056H105.042V65.7675H103.925V61.056ZM108.965 61.056H110.19L111.826 65.7675H110.661L110.355 64.7848H108.8L108.494 65.7675H107.33L108.965 61.056ZM110.099 63.9098L109.578 62.2271L109.056 63.9098H110.099ZM114.096 65.7675V61.056H115.213V64.805H117.024V65.7675H114.096ZM119.319 61.056H120.436V65.7675H119.319V61.056ZM122.915 65.0944L123.515 64.3473C123.681 64.5201 123.865 64.6581 124.066 64.7613C124.271 64.8622 124.476 64.9127 124.682 64.9127C124.864 64.9127 125.017 64.8678 125.14 64.7781C125.263 64.6884 125.325 64.5728 125.325 64.4315C125.325 64.3597 125.312 64.2957 125.285 64.2396C125.26 64.1813 125.215 64.1241 125.15 64.068C125.087 64.0119 124.996 63.9603 124.878 63.9132C124.761 63.8661 124.616 63.8246 124.443 63.7887C123.99 63.6922 123.639 63.5239 123.39 63.2839C123.141 63.0416 123.016 62.742 123.016 62.3853C123.016 61.9792 123.167 61.6427 123.467 61.3757C123.768 61.1087 124.152 60.9752 124.618 60.9752C124.926 60.9752 125.215 61.0279 125.487 61.1334C125.76 61.2388 126 61.3858 126.207 61.5742L125.641 62.3483C125.294 62.0476 124.968 61.8973 124.665 61.8973C124.517 61.8973 124.393 61.9355 124.292 62.0117C124.191 62.088 124.14 62.1834 124.14 62.2978C124.14 62.4369 124.201 62.5547 124.322 62.6512C124.443 62.7476 124.652 62.8295 124.948 62.8968C125.949 63.1279 126.449 63.6215 126.449 64.3776C126.449 64.8061 126.289 65.1584 125.968 65.4343C125.647 65.7103 125.22 65.8483 124.686 65.8483C124.333 65.8483 124.004 65.7821 123.696 65.6497C123.391 65.5174 123.131 65.3323 122.915 65.0944ZM129.556 65.7675V62.0185H128.401V61.056H131.827V62.0185H130.673V65.7675H129.556ZM135.034 61.056H136.259L137.894 65.7675H136.73L136.424 64.7848H134.869L134.563 65.7675H133.398L135.034 61.056ZM136.168 63.9098L135.646 62.2271L135.125 63.9098H136.168ZM139.802 65.0944L140.401 64.3473C140.567 64.5201 140.751 64.6581 140.953 64.7613C141.157 64.8622 141.362 64.9127 141.568 64.9127C141.75 64.9127 141.903 64.8678 142.026 64.7781C142.149 64.6884 142.211 64.5728 142.211 64.4315C142.211 64.3597 142.198 64.2957 142.171 64.2396C142.146 64.1813 142.101 64.1241 142.036 64.068C141.973 64.0119 141.882 63.9603 141.764 63.9132C141.647 63.8661 141.502 63.8246 141.329 63.7887C140.876 63.6922 140.525 63.5239 140.276 63.2839C140.027 63.0416 139.903 62.742 139.903 62.3853C139.903 61.9792 140.053 61.6427 140.353 61.3757C140.654 61.1087 141.038 60.9752 141.504 60.9752C141.812 60.9752 142.101 61.0279 142.373 61.1334C142.646 61.2388 142.887 61.3858 143.093 61.5742L142.528 62.3483C142.18 62.0476 141.854 61.8973 141.552 61.8973C141.403 61.8973 141.279 61.9355 141.178 62.0117C141.077 62.088 141.027 62.1834 141.027 62.2978C141.027 62.4369 141.087 62.5547 141.208 62.6512C141.329 62.7476 141.538 62.8295 141.834 62.8968C142.835 63.1279 143.335 63.6215 143.335 64.3776C143.335 64.8061 143.175 65.1584 142.854 65.4343C142.533 65.7103 142.106 65.8483 141.572 65.8483C141.22 65.8483 140.89 65.7821 140.582 65.6497C140.277 65.5174 140.017 65.3323 139.802 65.0944ZM149.452 65.7675V61.056H152.454V61.9983H150.57V62.9339H152.293V63.8627H150.57V64.8252H152.515V65.7675H149.452ZM157.806 64.3944H157.039L156.05 62.6444V65.7675H155.013V61.056H156.225L157.423 63.1829L158.621 61.056H159.832V65.7675H158.796V62.6444L157.806 64.3944ZM90.2617 72.056H91.4867L93.1223 76.7675H91.9579L91.6516 75.7848H90.0968L89.7906 76.7675H88.6261L90.2617 72.056ZM91.3958 74.9098L90.8742 73.2271L90.3526 74.9098H91.3958ZM97.5072 76.8483C97.0338 76.8483 96.6019 76.7417 96.2115 76.5286C95.8234 76.3132 95.5182 76.0193 95.2961 75.6468C95.074 75.2744 94.9629 74.8627 94.9629 74.4117C94.9629 73.9608 95.074 73.5491 95.2961 73.1767C95.5182 72.8042 95.8234 72.5114 96.2115 72.2983C96.6019 72.0829 97.0338 71.9752 97.5072 71.9752C98.1354 71.9752 98.6851 72.1625 99.1562 72.5372L98.5908 73.3584C98.2408 73.0824 97.8796 72.9444 97.5072 72.9444C97.1056 72.9444 96.7679 73.0847 96.4942 73.3651C96.2227 73.6456 96.087 73.9944 96.087 74.4117C96.087 74.8291 96.2227 75.1779 96.4942 75.4584C96.7679 75.7388 97.1056 75.8791 97.5072 75.8791C97.7113 75.8791 97.9099 75.8375 98.1028 75.7545C98.298 75.6715 98.473 75.5616 98.6278 75.4247L99.2168 76.2392C98.7411 76.6452 98.1713 76.8483 97.5072 76.8483ZM101.598 76.7675V72.056H104.6V72.9983H102.715V73.9339H104.438V74.8627H102.715V75.8252H104.66V76.7675H101.598ZM106.946 76.0944L107.545 75.3473C107.711 75.5201 107.895 75.6581 108.097 75.7613C108.301 75.8622 108.507 75.9127 108.713 75.9127C108.895 75.9127 109.047 75.8678 109.171 75.7781C109.294 75.6884 109.356 75.5728 109.356 75.4315C109.356 75.3597 109.342 75.2957 109.316 75.2396C109.291 75.1813 109.246 75.1241 109.181 75.068C109.118 75.0119 109.027 74.9603 108.908 74.9132C108.792 74.8661 108.647 74.8246 108.474 74.7887C108.021 74.6922 107.67 74.5239 107.421 74.2839C107.172 74.0416 107.047 73.742 107.047 73.3853C107.047 72.9792 107.198 72.6427 107.498 72.3757C107.799 72.1087 108.183 71.9752 108.649 71.9752C108.957 71.9752 109.246 72.0279 109.517 72.1334C109.791 72.2388 110.031 72.3858 110.238 72.5742L109.672 73.3483C109.325 73.0476 108.999 72.8973 108.696 72.8973C108.548 72.8973 108.424 72.9355 108.323 73.0117C108.222 73.088 108.171 73.1834 108.171 73.2978C108.171 73.4369 108.232 73.5547 108.353 73.6512C108.474 73.7476 108.683 73.8295 108.979 73.8968C109.98 74.1279 110.48 74.6215 110.48 75.3776C110.48 75.8061 110.32 76.1584 109.999 76.4343C109.678 76.7103 109.251 76.8483 108.717 76.8483C108.364 76.8483 108.034 76.7821 107.727 76.6497C107.422 76.5174 107.162 76.3323 106.946 76.0944ZM112.599 76.0944L113.198 75.3473C113.364 75.5201 113.548 75.6581 113.75 75.7613C113.954 75.8622 114.16 75.9127 114.366 75.9127C114.548 75.9127 114.7 75.8678 114.824 75.7781C114.947 75.6884 115.009 75.5728 115.009 75.4315C115.009 75.3597 114.995 75.2957 114.968 75.2396C114.944 75.1813 114.899 75.1241 114.834 75.068C114.771 75.0119 114.68 74.9603 114.561 74.9132C114.444 74.8661 114.3 74.8246 114.127 74.7887C113.674 74.6922 113.323 74.5239 113.074 74.2839C112.825 74.0416 112.7 73.742 112.7 73.3853C112.7 72.9792 112.85 72.6427 113.151 72.3757C113.452 72.1087 113.835 71.9752 114.302 71.9752C114.609 71.9752 114.899 72.0279 115.17 72.1334C115.444 72.2388 115.684 72.3858 115.89 72.5742L115.325 73.3483C114.977 73.0476 114.652 72.8973 114.349 72.8973C114.201 72.8973 114.077 72.9355 113.976 73.0117C113.875 73.088 113.824 73.1834 113.824 73.2978C113.824 73.4369 113.885 73.5547 114.006 73.6512C114.127 73.7476 114.336 73.8295 114.632 73.8968C115.632 74.1279 116.133 74.6215 116.133 75.3776C116.133 75.8061 115.972 76.1584 115.652 76.4343C115.331 76.7103 114.903 76.8483 114.369 76.8483C114.017 76.8483 113.687 76.7821 113.38 76.6497C113.075 76.5174 112.815 76.3323 112.599 76.0944ZM119.815 73.3651C119.544 73.6456 119.408 73.9944 119.408 74.4117C119.408 74.8291 119.544 75.1779 119.815 75.4584C120.089 75.7388 120.427 75.8791 120.828 75.8791C121.23 75.8791 121.566 75.7388 121.838 75.4584C122.112 75.1779 122.248 74.8291 122.248 74.4117C122.248 73.9944 122.112 73.6456 121.838 73.3651C121.566 73.0847 121.23 72.9444 120.828 72.9444C120.427 72.9444 120.089 73.0847 119.815 73.3651ZM118.617 75.6468C118.395 75.2744 118.284 74.8627 118.284 74.4117C118.284 73.9608 118.395 73.5491 118.617 73.1767C118.839 72.8042 119.144 72.5114 119.533 72.2983C119.923 72.0829 120.355 71.9752 120.828 71.9752C121.302 71.9752 121.732 72.0829 122.121 72.2983C122.511 72.5114 122.817 72.8042 123.039 73.1767C123.261 73.5491 123.372 73.9608 123.372 74.4117C123.372 74.8627 123.261 75.2744 123.039 75.6468C122.817 76.0193 122.511 76.3132 122.121 76.5286C121.732 76.7417 121.302 76.8483 120.828 76.8483C120.355 76.8483 119.923 76.7417 119.533 76.5286C119.144 76.3132 118.839 76.0193 118.617 75.6468ZM120.162 71.6925L121.003 70.5416H122.09L121.178 71.6925H120.162ZM125.799 72.056H127.543C128.036 72.056 128.437 72.1973 128.744 72.48C129.052 72.7627 129.205 73.1329 129.205 73.5906C129.205 73.9204 129.122 74.2065 128.956 74.4488C128.792 74.6911 128.564 74.8672 128.27 74.9771L129.33 76.7675H128.118L127.183 75.1252H126.903V76.7675H125.799V72.056ZM127.428 72.9444H126.903V74.2839H127.428C127.637 74.2839 127.801 74.2222 127.92 74.0988C128.041 73.9731 128.101 73.8116 128.101 73.6142C128.101 73.41 128.041 73.2473 127.92 73.1262C127.801 73.005 127.637 72.9444 127.428 72.9444ZM131.673 72.056H132.79V76.7675H131.673V72.056ZM136.767 73.3651C136.496 73.6456 136.36 73.9944 136.36 74.4117C136.36 74.8291 136.496 75.1779 136.767 75.4584C137.041 75.7388 137.378 75.8791 137.78 75.8791C138.182 75.8791 138.518 75.7388 138.79 75.4584C139.063 75.1779 139.2 74.8291 139.2 74.4117C139.2 73.9944 139.063 73.6456 138.79 73.3651C138.518 73.0847 138.182 72.9444 137.78 72.9444C137.378 72.9444 137.041 73.0847 136.767 73.3651ZM135.569 75.6468C135.347 75.2744 135.236 74.8627 135.236 74.4117C135.236 73.9608 135.347 73.5491 135.569 73.1767C135.791 72.8042 136.096 72.5114 136.484 72.2983C136.875 72.0829 137.307 71.9752 137.78 71.9752C138.253 71.9752 138.684 72.0829 139.072 72.2983C139.463 72.5114 139.769 72.8042 139.991 73.1767C140.213 73.5491 140.324 73.9608 140.324 74.4117C140.324 74.8627 140.213 75.2744 139.991 75.6468C139.769 76.0193 139.463 76.3132 139.072 76.5286C138.684 76.7417 138.253 76.8483 137.78 76.8483C137.307 76.8483 136.875 76.7417 136.484 76.5286C136.096 76.3132 135.791 76.0193 135.569 75.6468ZM142.454 76.0944L143.053 75.3473C143.219 75.5201 143.403 75.6581 143.605 75.7613C143.809 75.8622 144.014 75.9127 144.221 75.9127C144.402 75.9127 144.555 75.8678 144.678 75.7781C144.802 75.6884 144.863 75.5728 144.863 75.4315C144.863 75.3597 144.85 75.2957 144.823 75.2396C144.798 75.1813 144.753 75.1241 144.688 75.068C144.626 75.0119 144.535 74.9603 144.416 74.9132C144.299 74.8661 144.154 74.8246 143.982 74.7887C143.528 74.6922 143.177 74.5239 142.928 74.2839C142.679 74.0416 142.555 73.742 142.555 73.3853C142.555 72.9792 142.705 72.6427 143.006 72.3757C143.306 72.1087 143.69 71.9752 144.157 71.9752C144.464 71.9752 144.753 72.0279 145.025 72.1334C145.299 72.2388 145.539 72.3858 145.745 72.5742L145.18 73.3483C144.832 73.0476 144.507 72.8973 144.204 72.8973C144.056 72.8973 143.931 72.9355 143.83 73.0117C143.729 73.088 143.679 73.1834 143.679 73.2978C143.679 73.4369 143.739 73.5547 143.861 73.6512C143.982 73.7476 144.19 73.8295 144.486 73.8968C145.487 74.1279 145.987 74.6215 145.987 75.3776C145.987 75.8061 145.827 76.1584 145.506 76.4343C145.185 76.7103 144.758 76.8483 144.224 76.8483C143.872 76.8483 143.542 76.7821 143.235 76.6497C142.929 76.5174 142.669 76.3323 142.454 76.0944Z" fill="#060911"/>
<path d="M233.802 34.3667C233.802 40.5629 228.764 44.3345 221.937 44.3345C217.107 44.3345 213.41 42.9576 211.204 41.2514C209.863 40.3235 209.445 39.2758 209.445 38.2281C209.445 36.8512 210.489 35.2946 212.158 35.2946C212.993 35.2946 213.709 35.594 214.633 36.1627C216.272 37.3002 218.3 38.258 221.996 38.258C225.604 38.258 227.243 36.6716 227.243 34.5463C227.243 32.9 226.14 31.7924 223.278 31.1339L218.687 30.0563C213.828 28.9188 210.34 26.1051 210.34 21.1361C210.34 15.0896 215.378 11.4078 221.937 11.4078C225.991 11.4078 229.211 12.7248 230.91 13.9222C232.163 14.8202 232.64 15.6583 232.64 16.9155C232.64 18.3823 231.507 20.0286 229.777 20.0286C228.794 20.0286 228.108 19.6993 227.243 19.1905C226.349 18.5619 224.322 17.5741 221.937 17.5741C218.508 17.5741 216.809 18.8911 216.809 21.0164C216.809 22.543 217.823 23.5907 220.834 24.2791L225.037 25.237C231.059 26.614 233.802 29.6073 233.802 34.3667Z" fill="#060911"/>
<path d="M191.553 11.4078C200.408 11.4078 205.208 16.1971 205.208 24.0696V40.4432C205.208 42.7181 203.866 44.0651 201.809 44.0651C199.752 44.0651 198.44 42.7181 198.44 40.4432V24.7581C198.44 20.3279 196.204 17.9931 191.553 17.9931C188.96 17.9931 186.396 18.7115 184.846 19.6095V40.4432C184.846 42.7181 183.504 44.0651 181.447 44.0651C179.39 44.0651 178.078 42.7181 178.078 40.4432V18.2027C178.078 16.0774 178.525 15.1195 180.433 14.1317C182.222 13.084 186.575 11.4078 191.553 11.4078Z" fill="#060911"/>
<path d="M160.017 44.3345C152.117 44.3345 147.734 39.8744 147.734 34.0674C147.734 29.0386 151.64 24.4288 159.719 24.4288C162.313 24.4288 164.608 24.7581 167.321 25.4765V22.992C167.321 19.3701 165.413 17.5741 160.584 17.5741C158.467 17.5741 156.35 18.1129 155.038 18.6517C154.144 18.9809 153.309 19.2803 152.564 19.2803C150.984 19.2803 149.732 18.053 149.702 16.3767C149.702 14.9699 150.447 13.8623 152.296 13.1439C154.353 12.2758 157.543 11.4078 161.09 11.4078C169.229 11.4078 173.85 15.0896 173.85 23.1716V38.5574C173.85 39.7846 173.522 40.4133 172.598 41.0419C170.72 42.329 166.099 44.3345 160.017 44.3345ZM154.174 34.0674C154.174 37.0308 156.678 38.737 160.584 38.737C162.998 38.737 165.503 38.0485 167.321 37.0906V30.3556C164.847 29.6073 162.82 29.278 160.554 29.278C156.291 29.278 154.174 31.3734 154.174 34.0674Z" fill="#060911"/>
<path d="M132.673 44.2348C130.616 44.2348 129.304 42.8878 129.304 40.6129V19.42H127.754C125.846 19.42 124.594 18.1928 124.594 16.3369C124.594 14.511 125.846 13.2837 127.754 13.2837H129.304V11.1584C129.304 4.42341 133.061 0.71167 139.947 0.71167C141.438 0.71167 143.376 0.951137 144.658 1.28041C146.625 1.81921 147.728 2.77707 147.728 4.57308C147.728 6.21942 146.595 7.41676 144.986 7.41676C144.509 7.41676 143.972 7.35689 143.316 7.20722C142.332 6.96775 141.17 6.84802 140.394 6.84802C137.324 6.84802 136.072 8.64403 136.072 11.7571V13.2837H142.362C144.449 13.2837 145.671 14.511 145.671 16.3369C145.671 18.1928 144.449 19.42 142.362 19.42H136.072V40.6129C136.072 42.8878 134.73 44.2348 132.673 44.2348Z" fill="#060911"/>
<path d="M117.185 0C119.451 0 121.18 1.73614 121.18 4.01107C121.18 6.34588 119.451 8.08202 117.185 8.08202C114.949 8.08202 113.25 6.34588 113.25 4.01107C113.25 1.73614 114.949 0 117.185 0ZM113.846 40.6196V15.4756C113.846 13.2006 115.158 11.8836 117.215 11.8836C119.272 11.8836 120.614 13.2006 120.614 15.4756V40.6196C120.614 42.8946 119.272 44.2416 117.215 44.2416C115.158 44.2416 113.846 42.8946 113.846 40.6196Z" fill="#060911"/>
<path d="M108.25 23.2848C108.458 25.6795 108.458 29.6606 108.25 32.0852C107.594 39.2094 102.496 44.1484 94.5658 44.1484C88.9014 44.1484 84.1612 42.2027 82.2233 40.8857C81.329 40.2571 80.9414 39.5985 80.9414 38.2815V3.97778C80.9414 1.70284 82.283 0.355835 84.34 0.355835C86.3971 0.355835 87.7089 1.70284 87.7089 3.97778V12.8381C89.5871 11.9101 92.4491 11.2217 95.1918 11.2217C102.496 11.2217 107.594 16.1607 108.25 23.2848ZM87.7089 35.8569C89.1399 36.8746 92.0019 37.5631 94.2974 37.5631C98.7693 37.5631 101.184 34.899 101.542 30.9777C101.721 29.0021 101.721 26.5775 101.542 24.3924C101.214 20.4711 98.7693 17.807 94.2974 17.807C92.0019 17.807 89.1399 18.4955 87.7089 19.5132V35.8569Z" fill="#060911"/>
<path d="M61.7725 44.3345C53.9019 44.3345 48.4462 39.2458 47.7307 32.0319C47.522 29.757 47.522 25.9853 47.7307 23.7104C48.3866 16.4965 53.9019 11.4078 61.7725 11.4078C69.6728 11.4078 75.1881 16.4965 75.844 23.7104C76.0527 25.9853 76.0527 29.757 75.844 32.0319C75.1583 39.2458 69.6728 44.3345 61.7725 44.3345ZM54.4088 31.0441C54.7963 35.0252 57.5987 37.7492 61.7725 37.7492C65.976 37.7492 68.7784 35.0252 69.1362 31.0441C69.3449 28.9787 69.3449 26.7636 69.1362 24.6982C68.7784 20.7171 65.976 17.9931 61.7725 17.9931C57.5987 17.9931 54.7963 20.7171 54.4088 24.6982C54.2299 26.7636 54.2299 28.9787 54.4088 31.0441Z" fill="#060911"/>
<path d="M3.36882 44.0651C1.31175 44.0651 0 42.7181 0 40.4432V18.2027C0 16.0774 0.447189 15.1495 2.35519 14.1317C4.5017 12.7847 8.16865 11.4078 12.2828 11.4078C16.4864 11.4078 19.2291 12.665 21.3458 14.7903C23.8501 12.9942 27.0698 11.4078 31.184 11.4078C39.0545 11.4078 42.5724 15.9876 42.5724 23.0818V40.4432C42.5724 42.7181 41.2308 44.0651 39.1737 44.0651C37.1167 44.0651 35.8049 42.7181 35.8049 40.4432V24.0097C35.8049 20.0585 34.1056 17.9931 30.2002 17.9931C27.7257 17.9931 25.7283 19.0109 24.4165 19.9687C24.6252 21.196 24.6848 22.6927 24.6848 24.1594V40.4432C24.6848 42.7181 23.3433 44.0651 21.2862 44.0651C19.2291 44.0651 17.9174 42.7181 17.9174 40.4432V23.9499C17.9174 19.8191 16.0988 17.9931 12.1635 17.9931C10.4642 17.9931 8.10903 18.8313 6.76746 19.6095V40.4432C6.76746 42.7181 5.42589 44.0651 3.36882 44.0651Z" fill="#060911"/>
</svg>
