<svg width="96" height="96" viewBox="0 0 96 96" fill="none" xmlns="http://www.w3.org/2000/svg">
<g clip-path="url(#clip0_329_197)">
<path d="M82.4625 43.3517C82.4625 43.3517 82.3755 43.1952 82.3233 43.1082C73.6261 30.0624 57.0143 8.37142 54.5095 5.44914C54.179 5.04907 53.7268 4.75336 53.2397 4.57942C49.065 3.13568 45.0295 4.61421 42.1942 8.58016C39.4285 12.2504 39.0632 17.434 41.0984 24.4091H18.6943C12.8149 24.4091 8.04883 29.1926 8.04883 35.0546C8.04883 39.4728 10.8493 43.4213 14.8849 44.9868C13.8586 46.6567 13.3194 48.5701 13.3194 50.5357C13.3194 54.9017 15.9633 58.7459 19.9119 60.381C18.8508 62.0682 18.2768 64.0338 18.2768 66.0342C18.2768 70.2436 20.6946 73.9487 24.4171 75.6881C23.3386 77.3928 22.7646 79.3583 22.7646 81.3761C22.7646 87.2554 27.5481 92.0215 33.41 92.0215H56.249C56.249 92.0215 56.4229 92.0215 56.5447 92.0215H56.9448C57.484 92.0215 58.0232 92.0215 58.5451 91.9867C62.4414 91.7954 66.2334 90.8561 69.7993 89.221C80.8448 84.1766 87.9765 73.0963 87.9765 60.9898C87.9765 54.6582 86.0631 48.5527 82.4451 43.3517H82.4625ZM18.7291 30.2537H41.5506C43.4814 30.2537 45.2035 31.4017 45.9688 33.176C46.2297 33.7848 46.3689 34.411 46.3689 35.072C46.3689 35.4894 46.3167 35.9243 46.195 36.3592C45.6209 38.4465 43.7075 39.8902 41.568 39.8902H18.7291C16.0677 39.8902 13.9108 37.7333 13.9108 35.072C13.9108 32.4106 16.0677 30.2537 18.7291 30.2537ZM23.9648 45.7348H46.8038C49.4651 45.7348 51.622 47.8917 51.622 50.5531C51.622 53.2144 49.4651 55.3713 46.8038 55.3713H23.9648C21.3034 55.3713 19.1465 53.2144 19.1465 50.5531C19.1465 47.8917 21.3034 45.7348 23.9648 45.7348ZM27.3567 61.5116C27.8786 61.3377 28.4004 61.2333 28.9396 61.2333H51.7786C54.44 61.2333 56.5969 63.3902 56.5969 66.0516C56.5969 68.2781 55.0488 70.2262 52.8918 70.7307L29.0788 70.8524H28.957C26.2957 70.8524 24.1387 68.6955 24.1387 66.0342C24.1387 63.999 25.4433 62.1726 27.3741 61.4942L27.3567 61.5116ZM31.4792 76.9927C31.7923 76.8535 32.0706 76.7492 32.3316 76.697L56.2664 76.5752C58.9277 76.5752 61.0846 78.7322 61.0846 81.3935C61.0846 84.0549 59.0843 86.0552 56.5621 86.1944C56.2316 86.1944 41.2897 86.1944 33.4448 86.1944C30.7834 86.1944 28.6265 84.0375 28.6265 81.3761C28.6265 79.4801 29.7572 77.758 31.4966 76.9927H31.4792ZM67.1727 84.0027C66.9466 84.107 66.7205 84.2114 66.4943 84.2984C66.7726 83.3591 66.9118 82.3676 66.9118 81.3935C66.9118 77.184 64.494 73.479 60.7715 71.7396C61.85 70.0523 62.424 68.0693 62.424 66.0516C62.424 61.6855 59.7801 57.8414 55.8315 56.2063C56.8926 54.519 57.4666 52.5534 57.4666 50.5531C57.4666 46.1349 54.6661 42.1863 50.6306 40.6208C51.5873 39.0553 52.1265 37.2811 52.1961 35.3329C52.1961 35.2459 52.1961 35.1589 52.1961 35.0546C52.1961 33.8022 51.9699 32.5498 51.5177 31.3495C50.9784 29.9232 50.1261 28.6012 49.0477 27.5228C48.9955 27.4532 48.9433 27.401 48.8737 27.3488C48.3693 26.914 47.8996 26.1834 47.6909 25.7659C46.6298 22.7567 44.1424 15.6945 46.8907 12.0417C48.3867 9.95432 49.6391 9.72819 50.6306 9.90213C53.2049 13.0853 61.5543 23.9569 69.1731 34.4979C69.2079 34.5675 69.2427 34.6371 69.2949 34.7067C72.1649 38.6726 77.1224 45.9087 77.1572 45.9609C77.1745 45.9957 77.2441 46.1001 77.2615 46.1349C77.2789 46.187 77.3137 46.2218 77.3311 46.2566C78.9314 48.5527 80.2012 51.0749 81.0709 53.7189C82.7234 59.6504 82.1668 67.3561 79.7315 71.7222C77.1398 77.1666 72.6868 81.5153 67.1727 83.9853V84.0027Z" fill="#060911"/>
<path fill-rule="evenodd" clip-rule="evenodd" d="M67.1727 84.0027V83.9853C72.6868 81.5153 77.1398 77.1666 79.7315 71.7222C82.1668 67.3561 82.7234 59.6504 81.0709 53.7189C80.2012 51.0749 78.9314 48.5527 77.3311 46.2566C77.3246 46.2437 77.3157 46.2307 77.3062 46.2169C77.2902 46.1935 77.2724 46.1676 77.2615 46.1349C77.2528 46.1175 77.2311 46.0827 77.2093 46.0479C77.1876 46.0131 77.1659 45.9783 77.1572 45.9609C77.1224 45.9087 72.1649 38.6726 69.2949 34.7067C69.2427 34.6371 69.2079 34.5675 69.1731 34.4979C61.5543 23.9569 53.2049 13.0853 50.6306 9.90213C49.6391 9.72819 48.3867 9.95432 46.8907 12.0417C44.1424 15.6945 46.6298 22.7567 47.6909 25.7659C47.8996 26.1834 48.3693 26.914 48.8737 27.3488C48.9433 27.401 48.9955 27.4532 49.0477 27.5228C50.1261 28.6012 50.9784 29.9232 51.5177 31.3495C51.9699 32.5498 52.1961 33.8022 52.1961 35.0546V35.3329C52.1265 37.2811 51.5873 39.0553 50.6306 40.6208C54.6661 42.1863 57.4666 46.1349 57.4666 50.5531C57.4666 52.5534 56.8926 54.519 55.8315 56.2063C59.7801 57.8414 62.424 61.6855 62.424 66.0516C62.424 68.0693 61.85 70.0523 60.7715 71.7396C64.494 73.479 66.9118 77.184 66.9118 81.3935C66.9118 82.3676 66.7726 83.3591 66.4943 84.2984C66.7205 84.2114 66.9466 84.107 67.1727 84.0027Z" fill="white"/>
<path fill-rule="evenodd" clip-rule="evenodd" d="M41.5506 30.2537H18.7291C16.0677 30.2537 13.9108 32.4106 13.9108 35.072C13.9108 37.7333 16.0677 39.8902 18.7291 39.8902H41.568C43.7075 39.8902 45.6209 38.4465 46.195 36.3592C46.3167 35.9243 46.3689 35.4894 46.3689 35.072C46.3689 34.411 46.2297 33.7848 45.9688 33.176C45.2035 31.4017 43.4814 30.2537 41.5506 30.2537Z" fill="white"/>
<path fill-rule="evenodd" clip-rule="evenodd" d="M46.8038 45.7348H23.9648C21.3034 45.7348 19.1465 47.8917 19.1465 50.5531C19.1465 53.2144 21.3034 55.3713 23.9648 55.3713H46.8038C49.4651 55.3713 51.622 53.2144 51.622 50.5531C51.622 47.8917 49.4651 45.7348 46.8038 45.7348Z" fill="white"/>
<path fill-rule="evenodd" clip-rule="evenodd" d="M28.9396 61.2333C28.4004 61.2333 27.8786 61.3377 27.3567 61.5116L27.3741 61.4942C25.4433 62.1726 24.1387 63.999 24.1387 66.0342C24.1387 68.6955 26.2957 70.8524 28.957 70.8524H29.0788L52.8918 70.7307C55.0488 70.2262 56.5969 68.2781 56.5969 66.0516C56.5969 63.3902 54.44 61.2333 51.7786 61.2333H28.9396Z" fill="white"/>
<path fill-rule="evenodd" clip-rule="evenodd" d="M32.3316 76.697C32.0706 76.7492 31.7923 76.8535 31.4792 76.9927H31.4966C29.7572 77.758 28.6265 79.4801 28.6265 81.3761C28.6265 84.0375 30.7834 86.1944 33.4448 86.1944H56.5621C59.0843 86.0552 61.0846 84.0549 61.0846 81.3935C61.0846 78.7322 58.9277 76.5752 56.2664 76.5752L32.3316 76.697Z" fill="white"/>
</g>
<defs>
<clipPath id="clip0_329_197">
<rect width="96" height="96" fill="white"/>
</clipPath>
</defs>
</svg>
