<svg width="180" height="180" viewBox="0 0 180 180" fill="none" xmlns="http://www.w3.org/2000/svg">
<g clip-path="url(#clip0_329_199)">
<path d="M154.973 81.3374C154.973 81.3374 154.811 81.0456 154.714 80.8835C138.505 56.5708 107.547 16.1468 102.879 10.7007C102.263 9.9551 101.42 9.40401 100.512 9.07984C92.7323 6.38923 85.2115 9.14469 79.9276 16.5358C74.7733 23.3758 74.0925 33.036 77.8853 46.0352H36.1322C25.1752 46.0352 16.293 54.9499 16.293 65.8744C16.293 74.1083 21.5121 81.467 29.0329 84.3846C27.1202 87.4966 26.1153 91.0624 26.1153 94.7256C26.1153 102.862 31.0427 110.026 38.4014 113.074C36.424 116.218 35.3542 119.881 35.3542 123.609C35.3542 131.454 39.8601 138.359 46.7974 141.601C44.7875 144.777 43.7178 148.441 43.7178 152.201C43.7178 163.158 52.6324 172.04 63.557 172.04H106.121C106.121 172.04 106.445 172.04 106.672 172.04H107.417C108.422 172.04 109.427 172.04 110.4 171.975C117.661 171.619 124.728 169.868 131.373 166.821C151.958 157.42 165.249 136.77 165.249 114.208C165.249 102.408 161.683 91.03 154.941 81.3374H154.973ZM36.197 56.9274H78.7281C82.3264 56.9274 85.5357 59.0669 86.9621 62.3734C87.4483 63.508 87.7077 64.675 87.7077 65.9069C87.7077 66.6849 87.6104 67.4953 87.3835 68.3057C86.3137 72.1957 82.7478 74.8864 78.7606 74.8864H36.197C31.2372 74.8864 27.2175 70.8667 27.2175 65.9069C27.2175 60.9471 31.2372 56.9274 36.197 56.9274ZM45.9545 85.7785H88.5181C93.4779 85.7785 97.4976 89.7982 97.4976 94.758C97.4976 99.7178 93.4779 103.737 88.5181 103.737H45.9545C40.9947 103.737 36.975 99.7178 36.975 94.758C36.975 89.7982 40.9947 85.7785 45.9545 85.7785ZM52.2759 115.181C53.2484 114.857 54.2209 114.662 55.2258 114.662H97.7893C102.749 114.662 106.769 118.682 106.769 123.642C106.769 127.791 103.884 131.422 99.864 132.362L55.4851 132.589H55.2582C50.2984 132.589 46.2787 128.569 46.2787 123.609C46.2787 119.816 48.71 116.413 52.3083 115.148L52.2759 115.181ZM59.9587 144.032C60.5422 143.772 61.0609 143.578 61.5471 143.481L106.153 143.254C111.113 143.254 115.132 147.274 115.132 152.233C115.132 157.193 111.404 160.921 106.704 161.18C106.088 161.18 78.2419 161.18 63.6218 161.18C58.662 161.18 54.6423 157.161 54.6423 152.201C54.6423 148.667 56.7494 145.458 59.9911 144.032H59.9587ZM126.478 157.096C126.057 157.29 125.636 157.485 125.214 157.647C125.733 155.896 125.992 154.049 125.992 152.233C125.992 144.388 121.486 137.484 114.549 134.242C116.559 131.097 117.629 127.402 117.629 123.642C117.629 115.505 112.701 108.341 105.342 105.294C107.32 102.149 108.39 98.486 108.39 94.758C108.39 86.5241 103.171 79.1654 95.6498 76.2479C97.4327 73.3304 98.4377 70.0238 98.5673 66.3931C98.5673 66.231 98.5673 66.0689 98.5673 65.8744C98.5673 63.5404 98.1459 61.2064 97.3031 58.9696C96.2982 56.3114 94.7097 53.8477 92.6999 51.8379C92.6026 51.7082 92.5054 51.611 92.3757 51.5137C91.4356 50.7033 90.5603 49.3418 90.1713 48.5638C88.1939 42.9556 83.5583 29.7943 88.6802 22.9867C91.468 19.0967 93.802 18.6753 95.6498 18.9994C100.448 24.9318 116.008 45.1924 130.206 64.8371C130.271 64.9668 130.336 65.0964 130.433 65.2261C135.782 72.6172 145.021 86.1027 145.086 86.1999C145.118 86.2647 145.248 86.4592 145.28 86.5241C145.313 86.6213 145.377 86.6862 145.41 86.751C148.392 91.03 150.759 95.7305 152.38 100.658C155.459 111.712 154.422 126.073 149.883 134.209C145.053 144.356 136.755 152.46 126.478 157.063V157.096Z" fill="#060911"/>
<path fill-rule="evenodd" clip-rule="evenodd" d="M126.478 157.096V157.063C136.755 152.46 145.053 144.356 149.883 134.209C154.422 126.073 155.459 111.712 152.38 100.658C150.759 95.7305 148.392 91.03 145.41 86.751C145.398 86.7269 145.381 86.7027 145.364 86.6769C145.334 86.6334 145.301 86.5851 145.28 86.5241C145.264 86.4917 145.224 86.4268 145.183 86.362C145.142 86.2971 145.102 86.2323 145.086 86.1999C145.021 86.1027 135.782 72.6172 130.433 65.2261C130.336 65.0964 130.271 64.9668 130.206 64.8371C116.008 45.1924 100.448 24.9318 95.6498 18.9994C93.802 18.6753 91.468 19.0967 88.6802 22.9867C83.5583 29.7943 88.1939 42.9556 90.1713 48.5638C90.5603 49.3418 91.4356 50.7033 92.3757 51.5137C92.5054 51.611 92.6026 51.7082 92.6999 51.8379C94.7097 53.8477 96.2982 56.3114 97.3031 58.9696C98.1459 61.2064 98.5673 63.5404 98.5673 65.8744V66.3931C98.4377 70.0238 97.4327 73.3304 95.6498 76.2479C103.171 79.1654 108.39 86.5241 108.39 94.758C108.39 98.486 107.32 102.149 105.342 105.294C112.701 108.341 117.629 115.505 117.629 123.642C117.629 127.402 116.559 131.097 114.549 134.242C121.486 137.484 125.992 144.388 125.992 152.233C125.992 154.049 125.733 155.896 125.214 157.647C125.636 157.485 126.057 157.29 126.478 157.096Z" fill="white"/>
<path fill-rule="evenodd" clip-rule="evenodd" d="M78.7281 56.9274H36.197C31.2372 56.9274 27.2175 60.9471 27.2175 65.9069C27.2175 70.8667 31.2372 74.8864 36.197 74.8864H78.7606C82.7478 74.8864 86.3137 72.1957 87.3835 68.3057C87.6104 67.4953 87.7077 66.6849 87.7077 65.9069C87.7077 64.675 87.4483 63.508 86.9621 62.3734C85.5357 59.0669 82.3264 56.9274 78.7281 56.9274Z" fill="white"/>
<path fill-rule="evenodd" clip-rule="evenodd" d="M88.5181 85.7785H45.9545C40.9947 85.7785 36.975 89.7982 36.975 94.758C36.975 99.7178 40.9947 103.737 45.9545 103.737H88.5181C93.4779 103.737 97.4976 99.7178 97.4976 94.758C97.4976 89.7982 93.4779 85.7785 88.5181 85.7785Z" fill="white"/>
<path fill-rule="evenodd" clip-rule="evenodd" d="M55.2258 114.662C54.2209 114.662 53.2484 114.857 52.2759 115.181L52.3083 115.148C48.71 116.413 46.2787 119.816 46.2787 123.609C46.2787 128.569 50.2984 132.589 55.2582 132.589H55.4851L99.864 132.362C103.884 131.422 106.769 127.791 106.769 123.642C106.769 118.682 102.749 114.662 97.7893 114.662H55.2258Z" fill="white"/>
<path fill-rule="evenodd" clip-rule="evenodd" d="M61.5471 143.481C61.0609 143.578 60.5422 143.772 59.9587 144.032H59.9911C56.7494 145.458 54.6423 148.667 54.6423 152.201C54.6423 157.161 58.662 161.18 63.6218 161.18H106.704C111.404 160.921 115.132 157.193 115.132 152.233C115.132 147.274 111.113 143.254 106.153 143.254L61.5471 143.481Z" fill="white"/>
</g>
<defs>
<clipPath id="clip0_329_199">
<rect width="180" height="180" fill="white"/>
</clipPath>
</defs>
</svg>
