<svg width="512" height="512" viewBox="0 0 512 512" fill="none" xmlns="http://www.w3.org/2000/svg">
<g clip-path="url(#clip0_329_203)">
<path d="M443.096 230.857C443.096 230.857 442.626 230.01 442.343 229.54C395.299 158.974 305.445 41.6455 291.896 25.8386C290.108 23.6746 287.662 22.0751 285.028 21.1342C262.446 13.3249 240.618 21.3224 225.281 42.7746C210.321 62.6272 208.346 90.6655 219.354 128.395H98.1681C66.3662 128.395 40.5859 154.269 40.5859 185.977C40.5859 209.875 55.7342 231.234 77.5627 239.702C72.0115 248.734 69.0948 259.084 69.0948 269.716C69.0948 293.332 83.3962 314.125 104.754 322.97C99.0149 332.096 95.91 342.728 95.91 353.548C95.91 376.318 108.988 396.359 129.123 405.767C123.29 414.988 120.185 425.62 120.185 436.534C120.185 468.336 146.059 494.116 177.767 494.116H301.305C301.305 494.116 302.246 494.116 302.904 494.116H305.068C307.985 494.116 310.902 494.116 313.725 493.928C334.8 492.893 355.312 487.813 374.6 478.968C434.346 451.683 472.922 391.748 472.922 326.263C472.922 292.015 462.572 258.99 443.002 230.857H443.096ZM98.3563 160.009H221.8C232.244 160.009 241.559 166.219 245.699 175.816C247.11 179.109 247.863 182.496 247.863 186.071C247.863 188.329 247.58 190.681 246.922 193.034C243.817 204.324 233.467 212.134 221.894 212.134H98.3563C83.9607 212.134 72.2937 200.467 72.2937 186.071C72.2937 171.676 83.9607 160.009 98.3563 160.009ZM126.677 243.747H250.215C264.61 243.747 276.277 255.414 276.277 269.81C276.277 284.205 264.61 295.872 250.215 295.872H126.677C112.281 295.872 100.614 284.205 100.614 269.81C100.614 255.414 112.281 243.747 126.677 243.747ZM145.024 329.086C147.847 328.145 150.669 327.58 153.586 327.58H277.124C291.52 327.58 303.187 339.247 303.187 353.643C303.187 365.686 294.813 376.224 283.146 378.952L154.339 379.611H153.68C139.285 379.611 127.618 367.944 127.618 353.548C127.618 342.54 134.674 332.661 145.118 328.991L145.024 329.086ZM167.323 412.824C169.017 412.071 170.522 411.507 171.933 411.225L301.399 410.566C315.794 410.566 327.461 422.233 327.461 436.629C327.461 451.024 316.641 461.844 302.999 462.597C301.211 462.597 220.389 462.597 177.955 462.597C163.56 462.597 151.893 450.93 151.893 436.534C151.893 426.279 158.008 416.964 167.417 412.824H167.323ZM360.392 450.742C359.169 451.306 357.946 451.871 356.723 452.341C358.228 447.26 358.981 441.897 358.981 436.629C358.981 413.859 345.903 393.818 325.768 384.409C331.601 375.283 334.706 364.557 334.706 353.643C334.706 330.026 320.405 309.233 299.047 300.389C304.786 291.262 307.891 280.63 307.891 269.81C307.891 245.911 292.743 224.553 270.914 216.085C276.089 207.617 279.006 198.02 279.382 187.482C279.382 187.012 279.382 186.542 279.382 185.977C279.382 179.203 278.159 172.428 275.713 165.936C272.796 158.221 268.186 151.07 262.352 145.237C262.07 144.86 261.788 144.578 261.411 144.296C258.683 141.944 256.142 137.992 255.013 135.734C249.274 119.457 235.819 81.2567 250.685 61.4981C258.777 50.2075 265.551 48.9843 270.914 49.9252C284.839 67.1434 330.002 125.949 371.213 182.966C371.401 183.343 371.589 183.719 371.871 184.095C387.396 205.547 414.211 244.688 414.399 244.97C414.493 245.159 414.87 245.723 414.964 245.911C415.058 246.194 415.246 246.382 415.34 246.57C423.996 258.99 430.865 272.632 435.569 286.934C444.507 319.018 441.497 360.699 428.324 384.315C414.305 413.765 390.218 437.287 360.392 450.648V450.742Z" fill="#060911"/>
<path fill-rule="evenodd" clip-rule="evenodd" d="M360.392 450.742V450.648C390.218 437.287 414.305 413.765 428.324 384.315C441.497 360.699 444.507 319.018 435.569 286.934C430.865 272.632 423.996 258.99 415.34 246.57C415.305 246.5 415.257 246.43 415.205 246.355C415.119 246.229 415.023 246.089 414.964 245.911C414.917 245.817 414.799 245.629 414.681 245.441C414.564 245.253 414.446 245.065 414.399 244.97C414.211 244.688 387.396 205.547 371.871 184.095C371.589 183.719 371.401 183.343 371.213 182.966C330.002 125.949 284.839 67.1434 270.914 49.9252C265.551 48.9843 258.777 50.2075 250.685 61.4981C235.819 81.2567 249.274 119.457 255.013 135.734C256.142 137.992 258.683 141.944 261.411 144.296C261.788 144.578 262.07 144.86 262.352 145.237C268.186 151.07 272.796 158.221 275.713 165.936C278.159 172.428 279.382 179.203 279.382 185.977V187.482C279.006 198.02 276.089 207.617 270.914 216.085C292.743 224.553 307.891 245.911 307.891 269.81C307.891 280.63 304.786 291.262 299.047 300.389C320.405 309.233 334.706 330.026 334.706 353.643C334.706 364.557 331.601 375.283 325.768 384.409C345.903 393.818 358.981 413.859 358.981 436.629C358.981 441.897 358.228 447.26 356.723 452.341C357.946 451.871 359.169 451.306 360.392 450.742Z" fill="white"/>
<path fill-rule="evenodd" clip-rule="evenodd" d="M221.8 160.009H98.3563C83.9607 160.009 72.2937 171.676 72.2937 186.071C72.2937 200.467 83.9607 212.134 98.3563 212.134H221.894C233.467 212.134 243.817 204.324 246.922 193.034C247.58 190.681 247.863 188.329 247.863 186.071C247.863 182.496 247.11 179.109 245.699 175.816C241.559 166.219 232.244 160.009 221.8 160.009Z" fill="white"/>
<path fill-rule="evenodd" clip-rule="evenodd" d="M250.215 243.747H126.677C112.281 243.747 100.614 255.414 100.614 269.81C100.614 284.205 112.281 295.872 126.677 295.872H250.215C264.61 295.872 276.277 284.205 276.277 269.81C276.277 255.414 264.61 243.747 250.215 243.747Z" fill="white"/>
<path fill-rule="evenodd" clip-rule="evenodd" d="M153.586 327.58C150.669 327.58 147.847 328.145 145.024 329.086L145.118 328.991C134.674 332.661 127.618 342.54 127.618 353.548C127.618 367.944 139.285 379.611 153.68 379.611H154.339L283.146 378.952C294.813 376.224 303.187 365.686 303.187 353.643C303.187 339.247 291.52 327.58 277.124 327.58H153.586Z" fill="white"/>
<path fill-rule="evenodd" clip-rule="evenodd" d="M171.933 411.225C170.522 411.507 169.017 412.071 167.323 412.824H167.417C158.008 416.964 151.893 426.279 151.893 436.534C151.893 450.93 163.56 462.597 177.955 462.597H302.999C316.641 461.844 327.461 451.024 327.461 436.629C327.461 422.233 315.794 410.566 301.399 410.566L171.933 411.225Z" fill="white"/>
</g>
<defs>
<clipPath id="clip0_329_203">
<rect width="512" height="512" fill="white"/>
</clipPath>
</defs>
</svg>
