<svg width="16" height="16" viewBox="0 0 16 16" fill="none" xmlns="http://www.w3.org/2000/svg">
<g clip-path="url(#clip0_329_191)">
<path d="M13.4245 7.26049C13.4245 7.26049 13.4107 7.23559 13.4023 7.22175C12.0187 5.14627 9.37591 1.69543 8.97742 1.23053C8.92484 1.16688 8.85289 1.11983 8.77541 1.09216C8.11125 0.862474 7.46924 1.0977 7.01817 1.72864C6.57816 2.31255 6.52005 3.1372 6.84382 4.24689H3.27953C2.34418 4.24689 1.58594 5.0079 1.58594 5.94049C1.58594 6.64338 2.03147 7.27156 2.67349 7.52062C2.51022 7.78628 2.42443 8.09069 2.42443 8.40339C2.42443 9.09799 2.84507 9.70956 3.47324 9.96969C3.30444 10.2381 3.21312 10.5508 3.21312 10.8691C3.21312 11.5388 3.59777 12.1282 4.18998 12.4049C4.0184 12.6761 3.92708 12.9888 3.92708 13.3098C3.92708 14.2452 4.68809 15.0034 5.62067 15.0034H9.25415C9.25415 15.0034 9.28183 15.0034 9.3012 15.0034H9.36484C9.45063 15.0034 9.53642 15.0034 9.61944 14.9979C10.2393 14.9674 10.8426 14.818 11.4099 14.5579C13.1671 13.7554 14.3017 11.9926 14.3017 10.0665C14.3017 9.05924 13.9973 8.08792 13.4217 7.26049H13.4245ZM3.28507 5.17671H6.91578C7.22295 5.17671 7.49691 5.35935 7.61867 5.64162C7.66018 5.73847 7.68232 5.8381 7.68232 5.94325C7.68232 6.00967 7.67402 6.07885 7.65465 6.14803C7.56333 6.48011 7.25892 6.7098 6.91854 6.7098H3.28507C2.86167 6.7098 2.51852 6.36665 2.51852 5.94325C2.51852 5.51986 2.86167 5.17671 3.28507 5.17671ZM4.11803 7.63962H7.7515C8.1749 7.63962 8.51805 7.98276 8.51805 8.40616C8.51805 8.82956 8.1749 9.1727 7.7515 9.1727H4.11803C3.69463 9.1727 3.35148 8.82956 3.35148 8.40616C3.35148 7.98276 3.69463 7.63962 4.11803 7.63962ZM4.65765 10.1496C4.74067 10.1219 4.82369 10.1053 4.90948 10.1053H8.54295C8.96635 10.1053 9.3095 10.4484 9.3095 10.8718C9.3095 11.226 9.06321 11.536 8.72006 11.6162L4.93162 11.6356H4.91224C4.48885 11.6356 4.1457 11.2925 4.1457 10.8691C4.1457 10.5453 4.35325 10.2547 4.66042 10.1468L4.65765 10.1496ZM5.3135 12.6125C5.36331 12.5903 5.40759 12.5737 5.4491 12.5654L9.25692 12.5461C9.68032 12.5461 10.0235 12.8892 10.0235 13.3126C10.0235 13.736 9.70522 14.0542 9.30396 14.0764C9.25139 14.0764 6.87427 14.0764 5.62621 14.0764C5.20281 14.0764 4.85966 13.7332 4.85966 13.3098C4.85966 13.0082 5.03954 12.7342 5.31627 12.6125H5.3135ZM10.992 13.7277C10.956 13.7443 10.9201 13.7609 10.8841 13.7747C10.9284 13.6253 10.9505 13.4676 10.9505 13.3126C10.9505 12.6429 10.5659 12.0535 9.97365 11.7767C10.1452 11.5083 10.2365 11.1928 10.2365 10.8718C10.2365 10.1772 9.81592 9.56566 9.18774 9.30553C9.35654 9.03711 9.44786 8.7244 9.44786 8.40616C9.44786 7.70326 9.00233 7.07508 8.36031 6.82603C8.51251 6.57697 8.5983 6.2947 8.60937 5.98476C8.60937 5.97093 8.60937 5.95709 8.60937 5.94049C8.60937 5.74124 8.57339 5.54199 8.50144 5.35105C8.41566 5.12413 8.28006 4.91382 8.10849 4.74224C8.10018 4.73117 8.09188 4.72287 8.08081 4.71457C8.00056 4.64539 7.92584 4.52916 7.89264 4.46274C7.72383 3.984 7.3281 2.86047 7.76534 2.27934C8.00333 1.94726 8.20257 1.91128 8.36031 1.93896C8.76987 2.44537 10.0982 4.17494 11.3103 5.85193C11.3158 5.863 11.3213 5.87407 11.3296 5.88514C11.7862 6.51609 12.5749 7.66729 12.5805 7.67559C12.5832 7.68112 12.5943 7.69773 12.5971 7.70326C12.5998 7.71156 12.6054 7.7171 12.6081 7.72263C12.8627 8.08792 13.0647 8.48918 13.2031 8.90981C13.466 9.85346 13.3774 11.0794 12.99 11.774C12.5777 12.6401 11.8693 13.332 10.992 13.7249V13.7277Z" fill="#060911"/>
<path fill-rule="evenodd" clip-rule="evenodd" d="M10.992 13.7277V13.7249C11.8693 13.332 12.5777 12.6401 12.99 11.774C13.3774 11.0794 13.466 9.85346 13.2031 8.90981C13.0647 8.48918 12.8627 8.08792 12.6081 7.72263C12.6071 7.72057 12.6057 7.71851 12.6042 7.71631C12.6016 7.71259 12.5988 7.70847 12.5971 7.70326C12.5957 7.70049 12.5922 7.69496 12.5888 7.68943C12.5853 7.68389 12.5818 7.67836 12.5805 7.67559C12.5749 7.66729 11.7862 6.51609 11.3296 5.88514C11.3213 5.87407 11.3158 5.863 11.3103 5.85193C10.0982 4.17494 8.76987 2.44537 8.36031 1.93896C8.20257 1.91128 8.00333 1.94726 7.76534 2.27934C7.3281 2.86047 7.72383 3.984 7.89264 4.46274C7.92584 4.52916 8.00056 4.64539 8.08081 4.71457C8.09188 4.72287 8.10018 4.73117 8.10849 4.74224C8.28006 4.91382 8.41566 5.12413 8.50144 5.35105C8.57339 5.54199 8.60937 5.74124 8.60937 5.94049V5.98476C8.5983 6.2947 8.51251 6.57697 8.36031 6.82603C9.00233 7.07508 9.44786 7.70326 9.44786 8.40616C9.44786 8.7244 9.35654 9.03711 9.18774 9.30553C9.81592 9.56566 10.2365 10.1772 10.2365 10.8718C10.2365 11.1928 10.1452 11.5083 9.97365 11.7767C10.5659 12.0535 10.9505 12.6429 10.9505 13.3126C10.9505 13.4676 10.9284 13.6253 10.8841 13.7747C10.9201 13.7609 10.956 13.7443 10.992 13.7277Z" fill="white"/>
<path fill-rule="evenodd" clip-rule="evenodd" d="M6.91578 5.17671H3.28507C2.86167 5.17671 2.51852 5.51986 2.51852 5.94325C2.51852 6.36665 2.86167 6.7098 3.28507 6.7098H6.91854C7.25892 6.7098 7.56333 6.48011 7.65465 6.14803C7.67402 6.07885 7.68232 6.00967 7.68232 5.94325C7.68232 5.8381 7.66018 5.73847 7.61867 5.64162C7.49691 5.35935 7.22295 5.17671 6.91578 5.17671Z" fill="white"/>
<path fill-rule="evenodd" clip-rule="evenodd" d="M7.7515 7.63962H4.11803C3.69463 7.63962 3.35148 7.98276 3.35148 8.40616C3.35148 8.82956 3.69463 9.1727 4.11803 9.1727H7.7515C8.1749 9.1727 8.51805 8.82956 8.51805 8.40616C8.51805 7.98276 8.1749 7.63962 7.7515 7.63962Z" fill="white"/>
<path fill-rule="evenodd" clip-rule="evenodd" d="M4.90948 10.1053C4.82369 10.1053 4.74067 10.1219 4.65765 10.1496L4.66042 10.1468C4.35325 10.2547 4.1457 10.5453 4.1457 10.8691C4.1457 11.2925 4.48885 11.6356 4.91224 11.6356H4.93162L8.72006 11.6162C9.06321 11.536 9.3095 11.226 9.3095 10.8718C9.3095 10.4484 8.96635 10.1053 8.54295 10.1053H4.90948Z" fill="white"/>
<path fill-rule="evenodd" clip-rule="evenodd" d="M5.4491 12.5654C5.40759 12.5737 5.36331 12.5903 5.3135 12.6125H5.31627C5.03954 12.7342 4.85966 13.0082 4.85966 13.3098C4.85966 13.7332 5.20281 14.0764 5.62621 14.0764H9.30396C9.70522 14.0542 10.0235 13.736 10.0235 13.3126C10.0235 12.8892 9.68032 12.5461 9.25692 12.5461L5.4491 12.5654Z" fill="white"/>
</g>
<defs>
<clipPath id="clip0_329_191">
<rect width="16" height="16" fill="white"/>
</clipPath>
</defs>
</svg>
