<svg width="32" height="32" viewBox="0 0 32 32" fill="none" xmlns="http://www.w3.org/2000/svg">
<path d="M26.3587 14.521C26.3587 14.521 26.3311 14.4712 26.3144 14.4436C23.5471 10.2926 18.2616 3.39093 17.4646 2.46111C17.3594 2.33382 17.2155 2.23973 17.0606 2.18438C15.7323 1.72501 14.4482 2.19545 13.5461 3.45735C12.6661 4.62515 12.5499 6.27446 13.1974 8.49384H6.06883C4.19813 8.49384 2.68164 10.0159 2.68164 11.881C2.68164 13.2868 3.57271 14.5432 4.85674 15.0413C4.5302 15.5726 4.35863 16.1814 4.35863 16.8068C4.35863 18.196 5.19989 19.4192 6.45625 19.9394C6.11864 20.4763 5.936 21.1017 5.936 21.7382C5.936 23.0776 6.70531 24.2564 7.88971 24.8099C7.54657 25.3523 7.36393 25.9777 7.36393 26.6197C7.36393 28.4904 8.88594 30.0069 10.7511 30.0069H18.0181C18.0181 30.0069 18.0734 30.0069 18.1121 30.0069H18.2394C18.411 30.0069 18.5826 30.0069 18.7486 29.9958C19.9884 29.9349 21.1949 29.6361 22.3295 29.1158C25.844 27.5108 28.1132 23.9852 28.1132 20.1331C28.1132 18.1185 27.5044 16.1759 26.3532 14.521H26.3587ZM6.0799 10.3535H13.3413C13.9557 10.3535 14.5036 10.7188 14.7471 11.2833C14.8301 11.477 14.8744 11.6762 14.8744 11.8866C14.8744 12.0194 14.8578 12.1578 14.8191 12.2961C14.6364 12.9603 14.0276 13.4197 13.3468 13.4197H6.0799C5.2331 13.4197 4.54681 12.7334 4.54681 11.8866C4.54681 11.0398 5.2331 10.3535 6.0799 10.3535ZM7.74581 15.2793H15.0128C15.8596 15.2793 16.5459 15.9656 16.5459 16.8124C16.5459 17.6592 15.8596 18.3455 15.0128 18.3455H7.74581C6.89902 18.3455 6.21273 17.6592 6.21273 16.8124C6.21273 15.9656 6.89902 15.2793 7.74581 15.2793ZM8.82507 20.2992C8.9911 20.2438 9.15714 20.2106 9.32871 20.2106H16.5957C17.4425 20.2106 18.1288 20.8969 18.1288 21.7437C18.1288 22.4521 17.6362 23.072 16.9499 23.2325L9.37299 23.2713H9.33425C8.48745 23.2713 7.80116 22.585 7.80116 21.7382C7.80116 21.0906 8.21626 20.5095 8.8306 20.2936L8.82507 20.2992ZM10.1368 25.225C10.2364 25.1807 10.3249 25.1475 10.408 25.1309L18.0236 25.0922C18.8704 25.0922 19.5567 25.7784 19.5567 26.6252C19.5567 27.472 18.9202 28.1085 18.1177 28.1528C18.0125 28.1528 13.2583 28.1528 10.7622 28.1528C9.91539 28.1528 9.22909 27.4665 9.22909 26.6197C9.22909 26.0164 9.58884 25.4685 10.1423 25.225H10.1368ZM21.4938 27.4554C21.4218 27.4886 21.3499 27.5218 21.2779 27.5495C21.3665 27.2507 21.4108 26.9352 21.4108 26.6252C21.4108 25.2859 20.6415 24.107 19.4571 23.5535C19.8002 23.0167 19.9828 22.3857 19.9828 21.7437C19.9828 20.3545 19.1416 19.1314 17.8852 18.6111C18.2228 18.0743 18.4055 17.4488 18.4055 16.8124C18.4055 15.4066 17.5144 14.1502 16.2304 13.6521C16.5348 13.154 16.7064 12.5895 16.7285 11.9696C16.7285 11.9419 16.7285 11.9142 16.7285 11.881C16.7285 11.4825 16.6565 11.084 16.5126 10.7022C16.3411 10.2483 16.0699 9.82769 15.7267 9.48454C15.7101 9.4624 15.6935 9.4458 15.6714 9.4292C15.5109 9.29083 15.3614 9.05837 15.295 8.92554C14.9574 7.96806 14.166 5.721 15.0404 4.55873C15.5164 3.89458 15.9149 3.82263 16.2304 3.87797C17.0495 4.89081 19.7061 8.34994 22.1303 11.7039C22.1413 11.7261 22.1524 11.7482 22.169 11.7703C23.0822 13.0322 24.6596 15.3346 24.6707 15.3512C24.6762 15.3623 24.6983 15.3955 24.7039 15.4066C24.7094 15.4232 24.7205 15.4342 24.726 15.4453C25.2352 16.1759 25.6392 16.9784 25.916 17.8197C26.4417 19.707 26.2646 22.1588 25.4898 23.548C24.6651 25.2803 23.2483 26.664 21.4938 27.4499V27.4554Z" fill="#060911"/>
<path fill-rule="evenodd" clip-rule="evenodd" d="M21.4938 27.4554V27.4499C23.2483 26.664 24.6651 25.2803 25.4898 23.548C26.2646 22.1588 26.4417 19.707 25.916 17.8197C25.6392 16.9784 25.2352 16.1759 24.726 15.4453C24.7239 15.4412 24.7211 15.4371 24.7181 15.4327C24.713 15.4252 24.7073 15.417 24.7039 15.4066C24.7011 15.401 24.6942 15.39 24.6873 15.3789C24.6803 15.3678 24.6734 15.3568 24.6707 15.3512C24.6596 15.3346 23.0822 13.0322 22.169 11.7703C22.1524 11.7482 22.1413 11.7261 22.1303 11.7039C19.7061 8.34994 17.0495 4.89081 16.2304 3.87797C15.9149 3.82263 15.5164 3.89458 15.0404 4.55873C14.166 5.721 14.9574 7.96806 15.295 8.92554C15.3614 9.05837 15.5109 9.29083 15.6714 9.4292C15.6935 9.4458 15.7101 9.4624 15.7267 9.48454C16.0699 9.82769 16.3411 10.2483 16.5126 10.7022C16.6565 11.084 16.7285 11.4825 16.7285 11.881V11.9696C16.7064 12.5895 16.5348 13.154 16.2304 13.6521C17.5144 14.1502 18.4055 15.4066 18.4055 16.8124C18.4055 17.4488 18.2228 18.0743 17.8852 18.6111C19.1416 19.1314 19.9828 20.3545 19.9828 21.7437C19.9828 22.3857 19.8002 23.0167 19.4571 23.5535C20.6415 24.107 21.4108 25.2859 21.4108 26.6252C21.4108 26.9352 21.3665 27.2507 21.2779 27.5495C21.3499 27.5218 21.4218 27.4886 21.4938 27.4554Z" fill="white"/>
<path fill-rule="evenodd" clip-rule="evenodd" d="M13.3413 10.3535H6.0799C5.2331 10.3535 4.54681 11.0398 4.54681 11.8866C4.54681 12.7334 5.2331 13.4197 6.0799 13.4197H13.3468C14.0276 13.4197 14.6364 12.9603 14.8191 12.2961C14.8578 12.1578 14.8744 12.0194 14.8744 11.8866C14.8744 11.6762 14.8301 11.477 14.7471 11.2833C14.5036 10.7188 13.9557 10.3535 13.3413 10.3535Z" fill="white"/>
<path fill-rule="evenodd" clip-rule="evenodd" d="M15.0128 15.2793H7.74581C6.89902 15.2793 6.21273 15.9656 6.21273 16.8124C6.21273 17.6592 6.89902 18.3455 7.74581 18.3455H15.0128C15.8596 18.3455 16.5459 17.6592 16.5459 16.8124C16.5459 15.9656 15.8596 15.2793 15.0128 15.2793Z" fill="white"/>
<path fill-rule="evenodd" clip-rule="evenodd" d="M9.32871 20.2106C9.15714 20.2106 8.9911 20.2438 8.82507 20.2992L8.8306 20.2936C8.21626 20.5095 7.80116 21.0906 7.80116 21.7382C7.80116 22.585 8.48745 23.2713 9.33425 23.2713H9.37299L16.9499 23.2325C17.6362 23.072 18.1288 22.4521 18.1288 21.7437C18.1288 20.8969 17.4425 20.2106 16.5957 20.2106H9.32871Z" fill="white"/>
<path fill-rule="evenodd" clip-rule="evenodd" d="M10.408 25.1309C10.3249 25.1475 10.2364 25.1807 10.1368 25.225H10.1423C9.58884 25.4685 9.22909 26.0164 9.22909 26.6197C9.22909 27.4665 9.91539 28.1528 10.7622 28.1528H18.1177C18.9202 28.1085 19.5567 27.472 19.5567 26.6252C19.5567 25.7784 18.8704 25.0922 18.0236 25.0922L10.408 25.1309Z" fill="white"/>
</svg>
