<svg width="192" height="192" viewBox="0 0 192 192" fill="none" xmlns="http://www.w3.org/2000/svg">
<g clip-path="url(#clip0_329_201)">
<path d="M165.827 86.7035C165.827 86.7035 165.653 86.3904 165.549 86.2164C148.154 60.1247 114.931 16.7428 109.921 10.8983C109.26 10.0981 108.356 9.50673 107.382 9.15884C99.0324 6.27135 90.9614 9.22843 85.2908 17.1603C79.7593 24.5008 79.0288 34.8679 83.0991 48.8183H38.2909C26.5322 48.8183 17 58.3852 17 70.1091C17 78.9455 22.601 86.8427 30.6721 89.9737C28.6195 93.3134 27.5411 97.1402 27.5411 101.071C27.5411 109.803 32.829 117.492 40.7261 120.762C38.604 124.136 37.4559 128.068 37.4559 132.068C37.4559 140.487 42.2916 147.897 49.7364 151.376C47.5795 154.786 46.4315 158.717 46.4315 162.752C46.4315 174.511 55.9985 184.043 67.7223 184.043H113.4C113.4 184.043 113.748 184.043 113.992 184.043H114.792C115.87 184.043 116.949 184.043 117.992 183.973C125.785 183.591 133.369 181.712 140.501 178.442C162.592 168.353 176.855 146.193 176.855 121.98C176.855 109.316 173.029 97.1054 165.793 86.7035H165.827ZM38.3605 60.5074H84.0036C87.8652 60.5074 91.3093 62.8035 92.84 66.3519C93.3618 67.5696 93.6402 68.8219 93.6402 70.1439C93.6402 70.9789 93.5358 71.8486 93.2922 72.7183C92.1442 76.893 88.3174 79.7805 84.0384 79.7805H38.3605C33.0377 79.7805 28.7239 75.4666 28.7239 70.1439C28.7239 64.8212 33.0377 60.5074 38.3605 60.5074ZM48.8319 91.4696H94.5099C99.8326 91.4696 104.146 95.7834 104.146 101.106C104.146 106.429 99.8326 110.743 94.5099 110.743H48.8319C43.5092 110.743 39.1954 106.429 39.1954 101.106C39.1954 95.7834 43.5092 91.4696 48.8319 91.4696ZM55.6158 123.023C56.6595 122.675 57.7031 122.467 58.7816 122.467H104.46C109.782 122.467 114.096 126.78 114.096 132.103C114.096 136.556 111 140.452 106.686 141.461L59.0599 141.705H58.8164C53.4937 141.705 49.1798 137.391 49.1798 132.068C49.1798 127.998 51.789 124.345 55.6506 122.988L55.6158 123.023ZM63.8608 153.985C64.487 153.707 65.0436 153.498 65.5654 153.394L113.435 153.15C118.758 153.15 123.072 157.464 123.072 162.787C123.072 168.11 119.071 172.11 114.027 172.389C113.366 172.389 83.4818 172.389 67.7919 172.389C62.4692 172.389 58.1554 168.075 58.1554 162.752C58.1554 158.96 60.4167 155.516 63.8956 153.985H63.8608ZM135.248 168.005C134.796 168.214 134.343 168.423 133.891 168.597C134.448 166.718 134.726 164.735 134.726 162.787C134.726 154.368 129.89 146.958 122.445 143.479C124.602 140.105 125.75 136.139 125.75 132.103C125.75 123.371 120.462 115.683 112.565 112.413C114.687 109.038 115.836 105.107 115.836 101.106C115.836 92.2697 110.234 84.3726 102.163 81.2416C104.077 78.1106 105.155 74.5621 105.294 70.6658C105.294 70.4918 105.294 70.3179 105.294 70.1091C105.294 67.6043 104.842 65.0995 103.938 62.6991C102.859 59.8464 101.155 57.2024 98.9977 55.0455C98.8933 54.9064 98.7889 54.802 98.6497 54.6976C97.6409 53.8279 96.7016 52.3668 96.2841 51.5318C94.162 45.5133 89.1872 31.389 94.6838 24.0833C97.6757 19.9086 100.18 19.4564 102.163 19.8043C107.312 26.1706 124.011 47.9138 139.249 68.9959C139.318 69.135 139.388 69.2742 139.492 69.4134C145.232 77.3452 155.147 91.8175 155.217 91.9218C155.251 91.9914 155.391 92.2001 155.425 92.2697C155.46 92.3741 155.53 92.4437 155.565 92.5132C158.765 97.1054 161.305 102.15 163.044 107.438C166.349 119.301 165.236 134.712 160.365 143.444C155.182 154.333 146.276 163.031 135.248 167.971V168.005Z" fill="#060911"/>
<path fill-rule="evenodd" clip-rule="evenodd" d="M135.248 168.005V167.971C146.276 163.031 155.182 154.333 160.365 143.444C165.236 134.712 166.349 119.301 163.044 107.438C161.305 102.15 158.765 97.1054 155.565 92.5132C155.552 92.4873 155.534 92.4614 155.515 92.4337C155.483 92.387 155.447 92.3352 155.425 92.2697C155.408 92.2349 155.364 92.1654 155.321 92.0958C155.278 92.0262 155.234 91.9566 155.217 91.9218C155.147 91.8175 145.232 77.3452 139.492 69.4134C139.388 69.2742 139.318 69.135 139.249 68.9959C124.011 47.9138 107.312 26.1706 102.163 19.8043C100.18 19.4564 97.6757 19.9086 94.6838 24.0833C89.1872 31.389 94.162 45.5133 96.2841 51.5318C96.7016 52.3668 97.6409 53.8279 98.6497 54.6976C98.7889 54.802 98.8933 54.9064 98.9977 55.0455C101.155 57.2024 102.859 59.8464 103.938 62.6991C104.842 65.0995 105.294 67.6043 105.294 70.1091V70.6658C105.155 74.5621 104.077 78.1106 102.163 81.2416C110.234 84.3726 115.836 92.2697 115.836 101.106C115.836 105.107 114.687 109.038 112.565 112.413C120.462 115.683 125.75 123.371 125.75 132.103C125.75 136.139 124.602 140.105 122.445 143.479C129.89 146.958 134.726 154.368 134.726 162.787C134.726 164.735 134.448 166.718 133.891 168.597C134.343 168.423 134.796 168.214 135.248 168.005Z" fill="white"/>
<path fill-rule="evenodd" clip-rule="evenodd" d="M84.0036 60.5074H38.3605C33.0377 60.5074 28.7239 64.8212 28.7239 70.1439C28.7239 75.4666 33.0377 79.7805 38.3605 79.7805H84.0384C88.3174 79.7805 92.1442 76.893 93.2922 72.7183C93.5358 71.8486 93.6402 70.9789 93.6402 70.1439C93.6402 68.8219 93.3618 67.5696 92.84 66.3519C91.3093 62.8035 87.8652 60.5074 84.0036 60.5074Z" fill="white"/>
<path fill-rule="evenodd" clip-rule="evenodd" d="M94.5099 91.4696H48.8319C43.5092 91.4696 39.1954 95.7834 39.1954 101.106C39.1954 106.429 43.5092 110.743 48.8319 110.743H94.5099C99.8326 110.743 104.146 106.429 104.146 101.106C104.146 95.7834 99.8326 91.4696 94.5099 91.4696Z" fill="white"/>
<path fill-rule="evenodd" clip-rule="evenodd" d="M58.7816 122.467C57.7031 122.467 56.6595 122.675 55.6158 123.023L55.6506 122.988C51.789 124.345 49.1798 127.998 49.1798 132.068C49.1798 137.391 53.4937 141.705 58.8164 141.705H59.0599L106.686 141.461C111 140.452 114.096 136.556 114.096 132.103C114.096 126.78 109.782 122.467 104.46 122.467H58.7816Z" fill="white"/>
<path fill-rule="evenodd" clip-rule="evenodd" d="M65.5654 153.394C65.0436 153.498 64.487 153.707 63.8608 153.985H63.8956C60.4167 155.516 58.1554 158.96 58.1554 162.752C58.1554 168.075 62.4692 172.389 67.7919 172.389H114.027C119.071 172.11 123.072 168.11 123.072 162.787C123.072 157.464 118.758 153.15 113.435 153.15L65.5654 153.394Z" fill="white"/>
</g>
<defs>
<clipPath id="clip0_329_201">
<rect width="192" height="192" fill="white"/>
</clipPath>
</defs>
</svg>
