<svg width="48" height="48" viewBox="0 0 48 48" fill="none" xmlns="http://www.w3.org/2000/svg">
<path d="M40.8808 21.7815C40.8808 21.7815 40.8393 21.7068 40.8144 21.6653C36.6635 15.4389 28.7351 5.08636 27.5397 3.69164C27.3819 3.5007 27.1661 3.35956 26.9336 3.27654C24.9412 2.58748 23.0151 3.29315 21.6619 5.18599C20.3419 6.93769 20.1676 9.41166 21.1389 12.7407H10.446C7.63996 12.7407 5.36523 15.0238 5.36523 17.8215C5.36523 19.9302 6.70184 21.8147 8.62789 22.5619C8.13808 23.3589 7.88072 24.2721 7.88072 25.2102C7.88072 27.294 9.14261 29.1287 11.0271 29.9091C10.5207 30.7144 10.2468 31.6525 10.2468 32.6072C10.2468 34.6163 11.4007 36.3846 13.1773 37.2148C12.6626 38.0284 12.3887 38.9665 12.3887 39.9295C12.3887 42.7356 14.6717 45.0103 17.4694 45.0103H28.3699C28.3699 45.0103 28.4529 45.0103 28.511 45.0103H28.7019C28.9593 45.0103 29.2167 45.0103 29.4657 44.9937C31.3253 44.9024 33.1352 44.4541 34.837 43.6737C40.1088 41.2661 43.5126 35.9778 43.5126 30.1997C43.5126 27.1778 42.5993 24.2638 40.8725 21.7815H40.8808ZM10.4626 15.5302H21.3547C22.2762 15.5302 23.0981 16.0781 23.4634 16.9249C23.5879 17.2155 23.6544 17.5143 23.6544 17.8298C23.6544 18.0291 23.6295 18.2366 23.5713 18.4441C23.2974 19.4404 22.3842 20.1294 21.363 20.1294H10.4626C9.19242 20.1294 8.16298 19.1 8.16298 17.8298C8.16298 16.5596 9.19242 15.5302 10.4626 15.5302ZM12.9615 22.9189H23.8619C25.1321 22.9189 26.1615 23.9483 26.1615 25.2185C26.1615 26.4887 25.1321 27.5181 23.8619 27.5181H12.9615C11.6913 27.5181 10.6619 26.4887 10.6619 25.2185C10.6619 23.9483 11.6913 22.9189 12.9615 22.9189ZM14.5804 30.4487C14.8294 30.3657 15.0785 30.3159 15.3358 30.3159H26.2363C27.5065 30.3159 28.5359 31.3453 28.5359 32.6155C28.5359 33.6782 27.797 34.608 26.7676 34.8487L15.4023 34.9069H15.3441C14.074 34.9069 13.0445 33.8774 13.0445 32.6072C13.0445 31.6359 13.6672 30.7642 14.5887 30.4404L14.5804 30.4487ZM16.5479 37.8374C16.6974 37.771 16.8302 37.7212 16.9547 37.6963L28.3782 37.6382C29.6483 37.6382 30.6778 38.6676 30.6778 39.9378C30.6778 41.208 29.7231 42.1627 28.5193 42.2291C28.3616 42.2291 21.2302 42.2291 17.486 42.2291C16.2158 42.2291 15.1864 41.1997 15.1864 39.9295C15.1864 39.0246 15.726 38.2027 16.5562 37.8374H16.5479ZM33.5835 41.1831C33.4755 41.2329 33.3676 41.2827 33.2597 41.3242C33.3925 40.8759 33.4589 40.4027 33.4589 39.9378C33.4589 37.9288 32.305 36.1604 30.5284 35.3303C31.0431 34.525 31.317 33.5786 31.317 32.6155C31.317 30.5317 30.0551 28.697 28.1706 27.9166C28.677 27.1114 28.951 26.1732 28.951 25.2185C28.951 23.1098 27.6144 21.2253 25.6883 20.4781C26.1449 19.7309 26.4023 18.8842 26.4355 17.9543C26.4355 17.9128 26.4355 17.8713 26.4355 17.8215C26.4355 17.2238 26.3276 16.626 26.1117 16.0532C25.8544 15.3724 25.4476 14.7415 24.9329 14.2268C24.908 14.1936 24.883 14.1687 24.8498 14.1438C24.6091 13.9362 24.3849 13.5875 24.2853 13.3883C23.7789 11.952 22.5917 8.58147 23.9034 6.83807C24.6174 5.84184 25.2151 5.73391 25.6883 5.81693C26.917 7.33618 30.9019 12.5249 34.5382 17.5558C34.5548 17.589 34.5714 17.6223 34.5963 17.6555C35.9661 19.5483 38.3322 23.0019 38.3488 23.0268C38.3571 23.0434 38.3903 23.0932 38.3986 23.1098C38.4069 23.1347 38.4235 23.1513 38.4318 23.1679C39.1956 24.2638 39.8016 25.4676 40.2167 26.7295C41.0054 29.5604 40.7397 33.2382 39.5774 35.322C38.3405 37.9205 36.2152 39.9959 33.5835 41.1748V41.1831Z" fill="#060911"/>
<path fill-rule="evenodd" clip-rule="evenodd" d="M33.5835 41.1831V41.1748C36.2152 39.9959 38.3405 37.9205 39.5774 35.322C40.7397 33.2382 41.0054 29.5604 40.2167 26.7295C39.8016 25.4676 39.1956 24.2638 38.4318 23.1679C38.4287 23.1618 38.4244 23.1556 38.4199 23.149C38.4123 23.1378 38.4038 23.1255 38.3986 23.1098C38.3944 23.1015 38.384 23.0849 38.3737 23.0683C38.3633 23.0517 38.3529 23.0351 38.3488 23.0268C38.3322 23.0019 35.9661 19.5483 34.5963 17.6555C34.5714 17.6223 34.5548 17.589 34.5382 17.5558C30.9019 12.5249 26.917 7.33618 25.6883 5.81693C25.2151 5.73391 24.6174 5.84184 23.9034 6.83807C22.5917 8.58147 23.7789 11.952 24.2853 13.3883C24.3849 13.5875 24.6091 13.9362 24.8498 14.1438C24.883 14.1687 24.908 14.1936 24.9329 14.2268C25.4476 14.7415 25.8544 15.3724 26.1117 16.0532C26.3276 16.626 26.4355 17.2238 26.4355 17.8215V17.9543C26.4023 18.8842 26.1449 19.7309 25.6883 20.4781C27.6144 21.2253 28.951 23.1098 28.951 25.2185C28.951 26.1732 28.677 27.1114 28.1706 27.9166C30.0551 28.697 31.317 30.5317 31.317 32.6155C31.317 33.5786 31.0431 34.525 30.5284 35.3303C32.305 36.1604 33.4589 37.9288 33.4589 39.9378C33.4589 40.4027 33.3925 40.8759 33.2597 41.3242C33.3676 41.2827 33.4755 41.2329 33.5835 41.1831Z" fill="white"/>
<path fill-rule="evenodd" clip-rule="evenodd" d="M21.3547 15.5302H10.4626C9.19242 15.5302 8.16298 16.5596 8.16298 17.8298C8.16298 19.1 9.19242 20.1294 10.4626 20.1294H21.363C22.3842 20.1294 23.2974 19.4404 23.5713 18.4441C23.6295 18.2366 23.6544 18.0291 23.6544 17.8298C23.6544 17.5143 23.5879 17.2155 23.4634 16.9249C23.0981 16.0781 22.2762 15.5302 21.3547 15.5302Z" fill="white"/>
<path fill-rule="evenodd" clip-rule="evenodd" d="M23.8619 22.9189H12.9615C11.6913 22.9189 10.6619 23.9483 10.6619 25.2185C10.6619 26.4887 11.6913 27.5181 12.9615 27.5181H23.8619C25.1321 27.5181 26.1615 26.4887 26.1615 25.2185C26.1615 23.9483 25.1321 22.9189 23.8619 22.9189Z" fill="white"/>
<path fill-rule="evenodd" clip-rule="evenodd" d="M15.3358 30.3159C15.0785 30.3159 14.8294 30.3657 14.5804 30.4487L14.5887 30.4404C13.6672 30.7642 13.0445 31.6359 13.0445 32.6072C13.0445 33.8774 14.074 34.9069 15.3441 34.9069H15.4023L26.7676 34.8487C27.797 34.608 28.5359 33.6782 28.5359 32.6155C28.5359 31.3453 27.5065 30.3159 26.2363 30.3159H15.3358Z" fill="white"/>
<path fill-rule="evenodd" clip-rule="evenodd" d="M16.9547 37.6963C16.8302 37.7212 16.6974 37.771 16.5479 37.8374H16.5562C15.726 38.2027 15.1864 39.0246 15.1864 39.9295C15.1864 41.1997 16.2158 42.2291 17.486 42.2291H28.5193C29.7231 42.1627 30.6778 41.208 30.6778 39.9378C30.6778 38.6676 29.6483 37.6382 28.3782 37.6382L16.9547 37.6963Z" fill="white"/>
</svg>
