<?xml version="1.0" encoding="UTF-8"?>
<svg id="Camada_1" data-name="Camada 1" xmlns="http://www.w3.org/2000/svg" viewBox="0 0 500 1000">
  <defs>
    <style>
      .cls-1 {
        fill: none;
        stroke: red;
        stroke-miterlimit: 22.93;
        stroke-width: 2.83px;
      }
    </style>
  </defs>
  <path class="cls-1" d="M98.07,44.15h301.1c36,0,65.45,30.3,65.45,67.33v770.18c0,37.04-29.45,67.33-65.45,67.33H98.07c-36,0-65.45-30.3-65.45-67.33V111.48c0-37.04,29.45-67.33,65.45-67.33ZM146.66,122.28c0-22.14-17.95-40.09-40.09-40.09s-40.09,17.95-40.09,40.09,17.95,40.09,40.09,40.09,40.09-17.95,40.09-40.09ZM194.91,117.68c0-5.64-4.57-10.21-10.21-10.21s-10.21,4.57-10.21,10.21,4.57,10.21,10.21,10.21,10.21-4.57,10.21-10.21ZM204.13,165.19c0-11.14-9.03-20.17-20.17-20.17s-20.17,9.03-20.17,20.17,9.03,20.17,20.17,20.17,20.17-9.03,20.17-20.17ZM144.36,208.34c0-21.43-17.38-38.81-38.81-38.81s-38.81,17.38-38.81,38.81,17.38,38.81,38.81,38.81,38.81-17.38,38.81-38.81Z"/>
</svg>