<?xml version="1.0" encoding="UTF-8"?>
<svg id="Camada_1" data-name="Camada 1" xmlns="http://www.w3.org/2000/svg" viewBox="0 0 500 1000">
  <defs>
    <style>
      .cls-1 {
        fill: none;
        stroke: red;
        stroke-miterlimit: 22.93;
        stroke-width: 2.83px;
      }
    </style>
  </defs>
  <path class="cls-1" d="M98.74,42.11h302.52c36.17,0,65.76,30.55,65.76,67.9v776.57c0,37.34-29.59,67.9-65.76,67.9H98.74c-36.17,0-65.76-30.55-65.76-67.9V110c0-37.34,29.59-67.9,65.76-67.9ZM146.4,113.09c0-24.25-19.66-43.91-43.91-43.91s-43.91,19.66-43.91,43.91,19.66,43.91,43.91,43.91,43.91-19.66,43.91-43.91ZM146.06,209.09c0-24.63-19.97-44.6-44.6-44.6s-44.6,19.97-44.6,44.6,19.97,44.6,44.6,44.6,44.6-19.97,44.6-44.6ZM193.06,109.32c0-7.52-6.1-13.62-13.62-13.62s-13.62,6.1-13.62,13.62,6.1,13.62,13.62,13.62,13.62-6.1,13.62-13.62ZM203.6,160.79c0-13.16-10.67-23.83-23.83-23.83s-23.83,10.67-23.83,23.83,10.67,23.83,23.83,23.83,23.83-10.67,23.83-23.83Z"/>
</svg>