<?xml version="1.0" encoding="UTF-8"?>
<svg id="Camada_1" data-name="Camada 1" xmlns="http://www.w3.org/2000/svg" viewBox="0 0 500 1000">
  <defs>
    <style>
      .cls-1 {
        fill: none;
        stroke: red;
        stroke-miterlimit: 22.93;
        stroke-width: 2.83px;
      }
    </style>
  </defs>
  <path class="cls-1" d="M93.99,32.93h308.92c36.94,0,67.16,30.67,67.16,68.16v782.82c0,37.48-30.22,68.16-67.16,68.16H93.99c-36.94,0-67.16-30.67-67.16-68.16V101.08c0-37.48,30.22-68.16,67.16-68.16h0ZM146.23,110.02c0-25.01-20.27-45.28-45.28-45.28s-45.28,20.27-45.28,45.28,20.27,45.28,45.28,45.28,45.28-20.27,45.28-45.28ZM146.91,211.13c0-25.01-20.27-45.28-45.28-45.28s-45.28,20.27-45.28,45.28,20.27,45.28,45.28,45.28,45.28-20.27,45.28-45.28ZM231,160.4c0-23.69-19.2-42.89-42.89-42.89s-42.89,19.2-42.89,42.89,19.2,42.89,42.89,42.89,42.89-19.2,42.89-42.89ZM208.53,91.98c0-11.09-8.99-20.09-20.09-20.09s-20.09,8.99-20.09,20.09,8.99,20.09,20.09,20.09,20.09-8.99,20.09-20.09ZM209.55,232.23c0-12.22-9.91-22.13-22.13-22.13s-22.13,9.91-22.13,22.13,9.91,22.13,22.13,22.13,22.13-9.91,22.13-22.13ZM216.7,205.34c-3.01,0-5.45,2.44-5.45,5.45s2.44,5.45,5.45,5.45,5.45-2.44,5.45-5.45-2.44-5.45-5.45-5.45Z"/>
</svg>