<?xml version="1.0" encoding="UTF-8"?>
<svg id="Camada_1" data-name="Camada 1" xmlns="http://www.w3.org/2000/svg" viewBox="0 0 500 1000">
  <defs>
    <style>
      .cls-1 {
        fill: none;
        stroke: red;
        stroke-miterlimit: 22.93;
        stroke-width: 2.83px;
      }
    </style>
  </defs>
  <path class="cls-1" d="M97.23,46.2h304.72c36.43,0,66.24,29.89,66.24,66.42v762.82c0,36.53-29.81,66.42-66.24,66.42H97.23c-36.43,0-66.24-29.89-66.24-66.42V112.61c0-36.53,29.81-66.42,66.24-66.42h0ZM162.74,125.09c0-28.58-23.17-51.74-51.74-51.74s-51.74,23.17-51.74,51.74,23.17,51.74,51.74,51.74,51.74-23.17,51.74-51.74ZM240.36,102.62c0-14.29-11.58-25.87-25.87-25.87s-25.87,11.58-25.87,25.87,11.58,25.87,25.87,25.87,25.87-11.58,25.87-25.87ZM165.13,237.43c0-29.89-24.23-54.13-54.13-54.13s-54.13,24.23-54.13,54.13,24.23,54.13,54.13,54.13,54.13-24.23,54.13-54.13ZM264.53,180.57c0-27.83-22.56-50.38-50.38-50.38s-50.38,22.56-50.38,50.38,22.56,50.38,50.38,50.38,50.38-22.56,50.38-50.38ZM236.28,262.28c0-12.6-10.21-22.81-22.81-22.81s-22.81,10.21-22.81,22.81,10.21,22.81,22.81,22.81,22.81-10.21,22.81-22.81ZM257.04,242.19c0-4.51-3.66-8.17-8.17-8.17s-8.17,3.66-8.17,8.17,3.66,8.17,8.17,8.17,8.17-3.66,8.17-8.17Z"/>
</svg>