<?xml version="1.0" encoding="UTF-8"?>
<svg id="Camada_1" data-name="Camada 1" xmlns="http://www.w3.org/2000/svg" viewBox="0 0 500 1000">
  <defs>
    <style>
      .cls-1 {
        fill: none;
        stroke: red;
        stroke-miterlimit: 22.93;
        stroke-width: 2.83px;
      }
    </style>
  </defs>
  <path class="cls-1" d="M98.74,39.04h302.52c36.17,0,65.76,30.66,65.76,68.12v779.18c0,37.47-29.59,68.12-65.76,68.12H98.74c-36.17,0-65.76-30.66-65.76-68.12V107.17c0-37.47,29.59-68.12,65.76-68.12ZM97.21,63.13c-24.25,0-43.91,19.66-43.91,43.91s19.66,43.91,43.91,43.91,43.91-19.66,43.91-43.91-19.66-43.91-43.91-43.91ZM100.96,187.04c0-6.2-5.03-11.23-11.23-11.23s-11.23,5.03-11.23,11.23,5.03,11.23,11.23,11.23,11.23-5.03,11.23-11.23ZM203.43,98.53c0-12.97-10.52-23.49-23.49-23.49s-23.49,10.52-23.49,23.49,10.52,23.49,23.49,23.49,23.49-10.52,23.49-23.49ZM214.66,180.57c0-24.44-19.81-44.26-44.26-44.26s-44.26,19.81-44.26,44.26,19.81,44.26,44.26,44.26,44.26-19.81,44.26-44.26Z"/>
</svg>