<?xml version="1.0" encoding="UTF-8"?>
<svg id="Camada_1" data-name="Camada 1" xmlns="http://www.w3.org/2000/svg" viewBox="0 0 500 1000">
  <defs>
    <style>
      .cls-1 {
        fill: none;
        stroke: red;
        stroke-miterlimit: 22.93;
        stroke-width: 2.83px;
      }
    </style>
  </defs>
  <path class="cls-1" d="M96.68,44.16h302.51c36.17,0,65.76,30.16,65.76,67.02v769.77c0,36.86-29.59,67.02-65.76,67.02H96.68c-36.17,0-65.76-30.16-65.76-67.02V111.17c0-36.86,29.59-67.02,65.76-67.02h0ZM169.3,124.32c0-29.61-24.01-53.62-53.62-53.62s-53.62,24.01-53.62,53.62,24.01,53.62,53.62,53.62,53.62-24.01,53.62-53.62ZM248.96,100.57c0-13.11-10.63-23.74-23.74-23.74s-23.74,10.63-23.74,23.74,10.63,23.74,23.74,23.74,23.74-10.63,23.74-23.74ZM164.7,245.34c0-27.07-21.95-49.02-49.02-49.02s-49.02,21.95-49.02,49.02,21.95,49.02,49.02,49.02,49.02-21.95,49.02-49.02ZM277.3,184.83c0-28.77-23.32-52.09-52.09-52.09s-52.09,23.32-52.09,52.09,23.32,52.09,52.09,52.09,52.09-23.32,52.09-52.09ZM245.89,270.62c0-12.27-9.94-22.21-22.21-22.21s-22.21,9.94-22.21,22.21,9.94,22.21,22.21,22.21,22.21-9.94,22.21-22.21ZM268.11,248.4c0-4.23-3.43-7.66-7.66-7.66s-7.66,3.43-7.66,7.66,3.43,7.66,7.66,7.66,7.66-3.43,7.66-7.66Z"/>
</svg>