<?xml version="1.0" encoding="UTF-8"?>
<svg id="Camada_1" data-name="Camada 1" xmlns="http://www.w3.org/2000/svg" viewBox="0 0 500 1000">
  <defs>
    <style>
      .cls-1 {
        fill: none;
        stroke: red;
        stroke-miterlimit: 22.93;
        stroke-width: 2.83px;
      }
    </style>
  </defs>
  <path class="cls-1" d="M94.16,31.9h308.92c36.94,0,67.16,30.88,67.16,68.61v788.04c0,37.73-30.22,68.61-67.16,68.61H94.16c-36.94,0-67.16-30.88-67.16-68.61V100.51c0-37.73,30.22-68.61,67.16-68.61h0ZM157.72,112.06c0-27.92-22.63-50.55-50.55-50.55s-50.55,22.63-50.55,50.55,22.63,50.55,50.55,50.55,50.55-22.63,50.55-50.55ZM155.43,223.13c0-27.07-21.95-49.02-49.02-49.02s-49.02,21.95-49.02,49.02,21.95,49.02,49.02,49.02,49.02-21.95,49.02-49.02ZM258.06,168.74c0-27.07-21.95-49.02-49.02-49.02s-49.02,21.95-49.02,49.02,21.95,49.02,49.02,49.02,49.02-21.95,49.02-49.02ZM235.09,91.38c0-13.54-10.97-24.51-24.51-24.51s-24.51,10.97-24.51,24.51,10.97,24.51,24.51,24.51,24.51-10.97,24.51-24.51ZM252.7,228.49c0-4.23-3.43-7.66-7.66-7.66s-7.66,3.43-7.66,7.66,3.43,7.66,7.66,7.66,7.66-3.43,7.66-7.66ZM232.02,245.34c0-12.27-9.94-22.21-22.21-22.21s-22.21,9.94-22.21,22.21,9.94,22.21,22.21,22.21,22.21-9.94,22.21-22.21Z"/>
</svg>