<?xml version="1.0" encoding="UTF-8"?>
<svg id="Camada_1" data-name="Camada 1" xmlns="http://www.w3.org/2000/svg" viewBox="0 0 500 1000">
  <defs>
    <style>
      .cls-1 {
        fill: none;
        stroke: red;
        stroke-miterlimit: 22.93;
        stroke-width: 2.83px;
      }
    </style>
  </defs>
  <path class="cls-1" d="M93.94,36.74h309.11c36.95,0,67.19,30.76,67.19,68.34v781.7c0,37.6-30.24,68.34-67.19,68.34H93.94c-36.95,0-67.19-30.76-67.19-68.34V105.09c0-37.6,30.24-68.34,67.19-68.34ZM153.89,111.55c0-27.64-22.4-50.04-50.04-50.04s-50.04,22.4-50.04,50.04,22.4,50.04,50.04,50.04,50.04-22.4,50.04-50.04ZM216.19,103.38c0-11.84-9.6-21.45-21.45-21.45s-21.45,9.6-21.45,21.45,9.6,21.45,21.45,21.45,21.45-9.6,21.45-21.45ZM100.28,194.79c0-5.92-4.8-10.72-10.72-10.72s-10.72,4.8-10.72,10.72,4.8,10.72,10.72,10.72,10.72-4.8,10.72-10.72ZM233.04,192.23c0-26.79-21.72-48.51-48.51-48.51s-48.51,21.72-48.51,48.51,21.72,48.51,48.51,48.51,48.51-21.72,48.51-48.51Z"/>
</svg>