<?xml version="1.0" encoding="UTF-8"?>
<svg id="Camada_1" data-name="Camada 1" xmlns="http://www.w3.org/2000/svg" viewBox="0 0 500 1000">
  <defs>
    <style>
      .cls-1 {
        fill: none;
        stroke: red;
        stroke-miterlimit: 22.93;
        stroke-width: 2.83px;
      }
    </style>
  </defs>
  <path class="cls-1" d="M95.27,36.74h308.57c36.89,0,67.08,30.73,67.08,68.29v781.13c0,37.56-30.18,68.29-67.08,68.29H95.27c-36.89,0-67.08-30.73-67.08-68.29V105.04c0-37.56,30.18-68.29,67.08-68.29ZM143.51,104.74c0-25.19-20.42-45.62-45.62-45.62s-45.62,20.42-45.62,45.62,20.42,45.62,45.62,45.62,45.62-20.42,45.62-45.62ZM101.64,186.11c0-5.64-4.57-10.21-10.21-10.21s-10.21,4.57-10.21,10.21,4.57,10.21,10.21,10.21,10.21-4.57,10.21-10.21ZM204.11,94.19c0-11.47-9.3-20.77-20.77-20.77s-20.77,9.3-20.77,20.77,9.3,20.77,20.77,20.77,20.77-9.3,20.77-20.77ZM217.72,178.28c0-24.44-19.81-44.26-44.26-44.26s-44.26,19.81-44.26,44.26,19.81,44.26,44.26,44.26,44.26-19.81,44.26-44.26Z"/>
</svg>