<?xml version="1.0" encoding="UTF-8"?>
<svg id="Camada_1" data-name="Camada 1" xmlns="http://www.w3.org/2000/svg" viewBox="0 0 500 1000">
  <defs>
    <style>
      .cls-1 {
        fill: none;
        stroke: red;
        stroke-miterlimit: 22.93;
        stroke-width: 2.83px;
      }
    </style>
  </defs>
  <path class="cls-1" d="M96.79,39.82h305.36c36.51,0,66.38,30.49,66.38,67.76v778.25c0,37.26-29.87,67.76-66.38,67.76H96.79c-36.51,0-66.38-30.49-66.38-67.76V107.57c0-37.26,29.87-67.76,66.38-67.76h0ZM169.55,121.26c0-29.61-24.01-53.62-53.62-53.62s-53.62,24.01-53.62,53.62,24.01,53.62,53.62,53.62,53.62-24.01,53.62-53.62ZM252.28,97.77c0-12.97-10.52-23.49-23.49-23.49s-23.49,10.52-23.49,23.49,10.52,23.49,23.49,23.49,23.49-10.52,23.49-23.49ZM168.02,242.79c0-29.33-23.78-53.11-53.11-53.11s-53.11,23.78-53.11,53.11,23.78,53.11,53.11,53.11,53.11-23.78,53.11-53.11ZM254.32,270.36c0-12.97-10.52-23.49-23.49-23.49s-23.49,10.52-23.49,23.49,10.52,23.49,23.49,23.49,23.49-10.52,23.49-23.49ZM282.91,182.53c0-29.89-24.23-54.13-54.13-54.13s-54.13,24.23-54.13,54.13,24.23,54.13,54.13,54.13,54.13-24.23,54.13-54.13ZM275.26,246.36c0-4.79-3.89-8.68-8.68-8.68s-8.68,3.89-8.68,8.68,3.89,8.68,8.68,8.68,8.68-3.89,8.68-8.68Z"/>
</svg>