<?xml version="1.0" encoding="UTF-8"?>
<svg id="Camada_1" data-name="Camada 1" xmlns="http://www.w3.org/2000/svg" viewBox="0 0 500 1000">
  <defs>
    <style>
      .cls-1 {
        fill: none;
        stroke: red;
        stroke-miterlimit: 22.93;
        stroke-width: 2.83px;
      }
    </style>
  </defs>
  <path class="cls-1" d="M92.92,32.92h309.1c36.96,0,67.2,30.93,67.2,68.73v789.34c0,37.8-30.24,68.73-67.2,68.73H92.92c-36.96,0-67.2-30.93-67.2-68.73V101.64c0-37.8,30.24-68.73,67.2-68.73h0ZM261.64,167.04c0-27.83-22.56-50.38-50.38-50.38s-50.38,22.56-50.38,50.38,22.56,50.38,50.38,50.38,50.38-22.56,50.38-50.38ZM155.09,223.55c0-26.89-21.8-48.68-48.68-48.68s-48.68,21.8-48.68,48.68,21.8,48.68,48.68,48.68,48.68-21.8,48.68-48.68ZM157.47,112.23c0-28.2-22.86-51.06-51.06-51.06s-51.06,22.86-51.06,51.06,22.86,51.06,51.06,51.06,51.06-22.86,51.06-51.06ZM211.94,66.62c-12.03,0-21.79,9.75-21.79,21.79s9.75,21.79,21.79,21.79,21.79-9.75,21.79-21.79-9.75-21.79-21.79-21.79ZM233.04,248.4c0-12.03-9.75-21.79-21.79-21.79s-21.79,9.75-21.79,21.79,9.75,21.79,21.79,21.79,21.79-9.75,21.79-21.79ZM250.4,227.3c0-2.82-2.29-5.11-5.11-5.11s-5.11,2.29-5.11,5.11,2.29,5.11,5.11,5.11,5.11-2.29,5.11-5.11Z"/>
</svg>