<?xml version="1.0" encoding="UTF-8"?>
<svg id="Camada_1" data-name="Camada 1" xmlns="http://www.w3.org/2000/svg" viewBox="0 0 500 1000">
  <defs>
    <style>
      .cls-1 {
        fill: none;
        stroke: red;
        stroke-miterlimit: 22.93;
        stroke-width: 2.83px;
      }
    </style>
  </defs>
  <path class="cls-1" d="M97.49,45.94h304.3c36.38,0,66.15,30.27,66.15,67.26v769.31c0,37-29.77,67.26-66.15,67.26H97.49c-36.38,0-66.15-30.27-66.15-67.26V113.19c0-37,29.77-67.26,66.15-67.26ZM160.7,121.51c0-28.2-22.86-51.06-51.06-51.06s-51.06,22.86-51.06,51.06,22.86,51.06,51.06,51.06,51.06-22.86,51.06-51.06ZM163.09,232.49c0-28.77-23.32-52.09-52.09-52.09s-52.09,23.32-52.09,52.09,23.32,52.09,52.09,52.09,52.09-23.32,52.09-52.09ZM153.89,167.13c-5.08,0-9.19,4.12-9.19,9.19s4.12,9.19,9.19,9.19,9.19-4.12,9.19-9.19-4.12-9.19-9.19-9.19ZM233.89,178.02c0-12.6-10.21-22.81-22.81-22.81s-22.81,10.21-22.81,22.81,10.21,22.81,22.81,22.81,22.81-10.21,22.81-22.81Z"/>
</svg>