<?xml version="1.0" encoding="UTF-8"?>
<svg id="Camada_1" data-name="Camada 1" xmlns="http://www.w3.org/2000/svg" viewBox="0 0 500 1000">
  <defs>
    <style>
      .cls-1 {
        fill: none;
        stroke: red;
        stroke-miterlimit: 22.93;
        stroke-width: 2.83px;
      }
    </style>
  </defs>
  <path class="cls-1" d="M94.87,41.52h310.26c37.1,0,67.44,30.71,67.44,68.24v780.48c0,37.53-30.35,68.24-67.44,68.24H94.87c-37.1,0-67.44-30.71-67.44-68.24V109.76c0-37.53,30.35-68.24,67.44-68.24ZM102.23,61.77c-27.07,0-49.02,21.95-49.02,49.02s21.95,49.02,49.02,49.02,49.02-21.95,49.02-49.02-21.95-49.02-49.02-49.02ZM151.26,213.17c0-26.65-21.6-48.26-48.26-48.26s-48.26,21.6-48.26,48.26,21.6,48.26,48.26,48.26,48.26-21.6,48.26-48.26ZM218.66,162.87c0-12.13-9.83-21.96-21.96-21.96s-21.96,9.83-21.96,21.96,9.83,21.96,21.96,21.96,21.96-9.83,21.96-21.96ZM151.26,161.09c0-4.23-3.43-7.66-7.66-7.66s-7.66,3.43-7.66,7.66,3.43,7.66,7.66,7.66,7.66-3.43,7.66-7.66Z"/>
</svg>