<?xml version="1.0" encoding="UTF-8"?>
<svg id="Camada_1" data-name="Camada 1" xmlns="http://www.w3.org/2000/svg" viewBox="0 0 500 1000">
  <defs>
    <style>
      .cls-1 {
        fill: none;
        stroke: red;
        stroke-miterlimit: 22.93;
        stroke-width: 2.83px;
      }
    </style>
  </defs>
  <path class="cls-1" d="M95.37,35.99h305.9c36.58,0,66.5,30.72,66.5,68.27v784.12c0,37.54-29.92,68.27-66.5,68.27H95.37c-36.58,0-66.5-30.72-66.5-68.27V104.25c0-37.54,29.92-68.27,66.5-68.27h0ZM170.06,236.4c0-30.46-24.69-55.15-55.15-55.15s-55.15,24.69-55.15,55.15,24.69,55.15,55.15,55.15,55.15-24.69,55.15-55.15ZM169.55,116.4c0-30.18-24.46-54.64-54.64-54.64s-54.64,24.46-54.64,54.64,24.46,54.64,54.64,54.64,54.64-24.46,54.64-54.64ZM277.81,178.19c0-29.33-23.78-53.11-53.11-53.11s-53.11,23.78-53.11,53.11,23.78,53.11,53.11,53.11,53.11-23.78,53.11-53.11ZM254.83,91.89c0-15.51-12.57-28.09-28.09-28.09s-28.09,12.57-28.09,28.09,12.57,28.09,28.09,28.09,28.09-12.57,28.09-28.09ZM226.23,238.96c-12.97,0-23.49,10.52-23.49,23.49s10.52,23.49,23.49,23.49,23.49-10.52,23.49-23.49-10.52-23.49-23.49-23.49ZM271.64,243.04c0-4.79-3.89-8.68-8.68-8.68s-8.68,3.89-8.68,8.68,3.89,8.68,8.68,8.68,8.68-3.89,8.68-8.68Z"/>
</svg>