<?xml version="1.0" encoding="UTF-8"?>
<svg id="Camada_1" data-name="Camada 1" xmlns="http://www.w3.org/2000/svg" viewBox="0 0 500 1000">
  <defs>
    <style>
      .cls-1 {
        fill: none;
        stroke: red;
        stroke-miterlimit: 22.93;
        stroke-width: 2.83px;
      }
    </style>
  </defs>
  <path class="cls-1" d="M96.24,32.9h303.23c36.25,0,65.92,30.68,65.92,68.16v782.84c0,37.49-29.66,68.16-65.92,68.16H96.24c-36.25,0-65.92-30.68-65.92-68.16V101.05c0-37.49,29.66-68.16,65.92-68.16h0ZM155.94,110.79c0-25.95-21.03-46.98-46.98-46.98s-46.98,21.03-46.98,46.98,21.03,46.98,46.98,46.98,46.98-21.03,46.98-46.98ZM155.43,218.02c0-25.66-20.8-46.47-46.47-46.47s-46.47,20.8-46.47,46.47,20.8,46.47,46.47,46.47,46.47-20.8,46.47-46.47ZM235.09,87.3c0-13.54-10.97-24.51-24.51-24.51s-24.51,10.97-24.51,24.51,10.97,24.51,24.51,24.51,24.51-10.97,24.51-24.51ZM256.02,162.36c0-25.1-20.35-45.45-45.45-45.45s-45.45,20.35-45.45,45.45,20.35,45.45,45.45,45.45,45.45-20.35,45.45-45.45ZM233.04,243.55c0-12.13-9.83-21.96-21.96-21.96s-21.96,9.83-21.96,21.96,9.83,21.96,21.96,21.96,21.96-9.83,21.96-21.96ZM251.94,223.64c0-3.95-3.2-7.15-7.15-7.15s-7.15,3.2-7.15,7.15,3.2,7.15,7.15,7.15,7.15-3.2,7.15-7.15Z"/>
</svg>