<?xml version="1.0" encoding="UTF-8"?>
<svg id="Camada_1" data-name="Camada 1" xmlns="http://www.w3.org/2000/svg" viewBox="0 0 500 1000">
  <defs>
    <style>
      .cls-1 {
        fill: none;
        stroke: red;
        stroke-miterlimit: 22.93;
        stroke-width: 2.83px;
      }
    </style>
  </defs>
  <path class="cls-1" d="M98.74,45.53h302.52c36.17,0,65.76,30.44,65.76,67.64v773.65c0,37.2-29.59,67.64-65.76,67.64H98.74c-36.17,0-65.76-30.44-65.76-67.64V113.17c0-37.2,29.59-67.64,65.76-67.64ZM180.28,135.21c0-29.71-24.08-53.79-53.79-53.79s-53.79,24.08-53.79,53.79,24.08,53.79,53.79,53.79,53.79-24.08,53.79-53.79ZM342.66,134.53c0-6.02-4.88-10.89-10.89-10.89s-10.89,4.88-10.89,10.89,4.88,10.89,10.89,10.89,10.89-4.88,10.89-10.89ZM397.77,134.53c0-13.16-10.67-23.83-23.83-23.83s-23.83,10.67-23.83,23.83,10.67,23.83,23.83,23.83,23.83-10.67,23.83-23.83Z"/>
</svg>