<?xml version="1.0" encoding="UTF-8"?>
<svg id="Camada_1" data-name="Camada 1" xmlns="http://www.w3.org/2000/svg" viewBox="0 0 500 1000">
  <defs>
    <style>
      .cls-1 {
        fill: none;
        stroke: red;
        stroke-miterlimit: 22.93;
        stroke-width: 2.83px;
      }
    </style>
  </defs>
  <path class="cls-1" d="M104.79,64.94h290.42c34.72,0,63.13,29.14,63.13,64.75v740.62c0,35.62-28.41,64.75-63.13,64.75H104.79c-34.72,0-63.13-29.14-63.13-64.75V129.69c0-35.62,28.41-64.75,63.13-64.75ZM121.47,94.7c-27.07,0-49.02,21.95-49.02,49.02s21.95,49.02,49.02,49.02,49.02-21.95,49.02-49.02-21.95-49.02-49.02-49.02ZM168.7,248.15c0-26.51-21.49-48-48-48s-48,21.49-48,48,21.49,48,48,48,48-21.49,48-48ZM240.94,195.79c0-11.99-9.72-21.7-21.7-21.7s-21.7,9.72-21.7,21.7,9.72,21.7,21.7,21.7,21.7-9.72,21.7-21.7ZM161.55,186.62c-5.22,0-9.45,4.23-9.45,9.45s4.23,9.45,9.45,9.45,9.45-4.23,9.45-9.45-4.23-9.45-9.45-9.45Z"/>
</svg>