<?xml version="1.0" encoding="UTF-8"?>
<svg id="Camada_1" data-name="Camada 1" xmlns="http://www.w3.org/2000/svg" viewBox="0 0 500 1000">
  <defs>
    <style>
      .cls-1 {
        fill: none;
        stroke: red;
        stroke-miterlimit: 22.93;
        stroke-width: 2.83px;
      }
    </style>
  </defs>
  <path class="cls-1" d="M104.53,63.02h290.95c34.79,0,63.25,29.16,63.25,64.81v744.34c0,35.64-28.46,64.81-63.25,64.81H104.53c-34.79,0-63.25-29.16-63.25-64.81V127.82c0-35.64,28.46-64.81,63.25-64.81h0ZM124.62,89.09c-30.46,0-55.15,24.69-55.15,55.15s24.69,55.15,55.15,55.15,55.15-24.69,55.15-55.15-24.69-55.15-55.15-55.15ZM125.64,202.45c-30.46,0-55.15,24.69-55.15,55.15s24.69,55.15,55.15,55.15,55.15-24.69,55.15-55.15-24.69-55.15-55.15-55.15ZM229.81,146.28c-30.46,0-55.15,24.69-55.15,55.15s24.69,55.15,55.15,55.15,55.15-24.69,55.15-55.15-24.69-55.15-55.15-55.15ZM380.45,115.13c-14.38,0-26.04,11.66-26.04,26.04s11.66,26.04,26.04,26.04,26.04-11.66,26.04-26.04-11.66-26.04-26.04-26.04ZM392.7,200.91c0-7.33-5.94-13.28-13.28-13.28s-13.28,5.94-13.28,13.28,5.94,13.28,13.28,13.28,13.28-5.94,13.28-13.28ZM408.02,260.15c0-15.51-12.57-28.09-28.09-28.09s-28.09,12.57-28.09,28.09,12.57,28.09,28.09,28.09,28.09-12.57,28.09-28.09Z"/>
</svg>