<?xml version="1.0" encoding="UTF-8"?>
<svg id="Camada_1" data-name="Camada 1" xmlns="http://www.w3.org/2000/svg" viewBox="0 0 500 1000">
  <defs>
    <style>
      .cls-1 {
        fill: none;
        stroke: red;
        stroke-miterlimit: 22.93;
        stroke-width: 2.83px;
      }
    </style>
  </defs>
  <path class="cls-1" d="M91.71,23.58h316.57c37.85,0,68.82,31.8,68.82,70.66v811.54c0,38.86-30.97,70.66-68.82,70.66H91.71c-37.85,0-68.82-31.8-68.82-70.66V94.23c0-38.86,30.97-70.66,68.82-70.66h0ZM105.28,48.69c-30.46,0-55.15,24.69-55.15,55.15s24.69,55.15,55.15,55.15,55.15-24.69,55.15-55.15-24.69-55.15-55.15-55.15ZM210.99,105.88c-30.46,0-55.15,24.69-55.15,55.15s24.69,55.15,55.15,55.15,55.15-24.69,55.15-55.15-24.69-55.15-55.15-55.15ZM106.31,163.58c-30.46,0-55.15,24.69-55.15,55.15s24.69,55.15,55.15,55.15,55.15-24.69,55.15-55.15-24.69-55.15-55.15-55.15ZM396.86,73.2c-14.66,0-26.55,11.89-26.55,26.55s11.89,26.55,26.55,26.55,26.55-11.89,26.55-26.55-11.89-26.55-26.55-26.55ZM396.35,149.28c-5.64,0-10.21,4.57-10.21,10.21s4.57,10.21,10.21,10.21,10.21-4.57,10.21-10.21-4.57-10.21-10.21-10.21ZM396.35,194.22c-14.1,0-25.53,11.43-25.53,25.53s11.43,25.53,25.53,25.53,25.53-11.43,25.53-25.53-11.43-25.53-25.53-25.53Z"/>
</svg>