<?xml version="1.0" encoding="UTF-8"?>
<svg id="Camada_1" data-name="Camada 1" xmlns="http://www.w3.org/2000/svg" viewBox="0 0 500 1000">
  <defs>
    <style>
      .cls-1 {
        fill: none;
        fill-rule: evenodd;
        stroke: red;
        stroke-miterlimit: 22.93;
        stroke-width: 2.83px;
      }
    </style>
  </defs>
  <path class="cls-1" d="M80.83,34.7h338.34c29.19,0,53.07,23.62,53.07,52.48v821.85c0,28.86-23.88,52.48-53.07,52.48H80.83c-29.19,0-53.07-23.61-53.07-52.48V87.18c0-28.86,23.88-52.48,53.07-52.48ZM144.11,103.27c0-24.3-19.7-43.99-43.99-43.99s-43.99,19.7-43.99,43.99,19.7,43.99,43.99,43.99,43.99-19.7,43.99-43.99ZM142.93,190.02c0-23.64-19.17-42.81-42.81-42.81s-42.81,19.17-42.81,42.81,19.17,42.81,42.81,42.81,42.81-19.17,42.81-42.81ZM141.86,274.88c0-23.05-18.69-41.74-41.74-41.74s-41.74,18.69-41.74,41.74,18.69,41.74,41.74,41.74,41.74-18.69,41.74-41.74ZM173.17,132.5c-8.44,0-15.28,6.84-15.28,15.28s6.84,15.28,15.28,15.28,15.28-6.84,15.28-15.28-6.84-15.28-15.28-15.28Z"/>
</svg>