<?xml version="1.0" encoding="UTF-8"?>
<svg id="Camada_1" data-name="Camada 1" xmlns="http://www.w3.org/2000/svg" viewBox="0 0 500 1000">
  <defs>
    <style>
      .cls-1 {
        fill: none;
        fill-rule: evenodd;
        stroke: red;
        stroke-miterlimit: 22.93;
        stroke-width: 2.83px;
      }
    </style>
  </defs>
  <path class="cls-1" d="M80.83,28.06h338.34c29.19,0,53.07,24.04,53.07,53.43v836.79c0,29.39-23.88,53.43-53.07,53.43H80.83c-29.19,0-53.07-24.04-53.07-53.43V81.5c0-29.39,23.88-53.43,53.07-53.43ZM161.61,272.91V113.6c0-28.62-23.2-51.83-51.83-51.83h0c-28.62,0-51.83,23.2-51.83,51.83v159.32c0,28.62,23.2,51.83,51.83,51.83h0c28.62,0,51.83-23.2,51.83-51.83ZM215.22,151.38c0-9.45-7.66-17.11-17.11-17.11s-17.11,7.66-17.11,17.11,7.66,17.11,17.11,17.11,17.11-7.66,17.11-17.11Z"/>
</svg>