<?xml version="1.0" encoding="UTF-8"?>
<svg id="Camada_1" data-name="Camada 1" xmlns="http://www.w3.org/2000/svg" viewBox="0 0 500 1000">
  <defs>
    <style>
      .cls-1 {
        fill: none;
        fill-rule: evenodd;
        stroke: red;
        stroke-miterlimit: 22.93;
        stroke-width: 2.83px;
      }
    </style>
  </defs>
  <path class="cls-1" d="M80.83,35.83h338.34c29.19,0,53.07,23.65,53.07,52.57v823.21c0,28.91-23.88,52.57-53.07,52.57H80.83c-29.19,0-53.07-23.65-53.07-52.57V88.4c0-28.91,23.88-52.57,53.07-52.57ZM141.08,106.93c0-23.59-19.12-42.72-42.72-42.72s-42.72,19.12-42.72,42.72,19.12,42.72,42.72,42.72,42.72-19.12,42.72-42.72ZM141.08,192.31c0-23.59-19.12-42.72-42.72-42.72s-42.72,19.12-42.72,42.72,19.12,42.72,42.72,42.72,42.72-19.12,42.72-42.72ZM141.08,277.69c0-23.59-19.12-42.72-42.72-42.72s-42.72,19.12-42.72,42.72,19.12,42.72,42.72,42.72,42.72-19.12,42.72-42.72ZM165.41,135.31c-8.19,0-14.83,6.64-14.83,14.83s6.64,14.83,14.83,14.83,14.83-6.64,14.83-14.83-6.64-14.83-14.83-14.83Z"/>
</svg>