<?xml version="1.0" encoding="UTF-8"?>
<svg id="Camada_1" data-name="Camada 1" xmlns="http://www.w3.org/2000/svg" viewBox="0 0 500 1000">
  <defs>
    <style>
      .cls-1 {
        fill: none;
        fill-rule: evenodd;
        stroke: red;
        stroke-miterlimit: 22.93;
        stroke-width: 2.83px;
      }
    </style>
  </defs>
  <path class="cls-1" d="M80.83,35.83h338.34c29.19,0,53.07,23.53,53.07,52.29v818.81c0,28.76-23.88,52.29-53.07,52.29H80.83c-29.19,0-53.07-23.53-53.07-52.29V88.12c0-28.76,23.88-52.29,53.07-52.29ZM152.17,112.12c0-26.46-21.45-47.91-47.91-47.91s-47.91,21.45-47.91,47.91,21.45,47.91,47.91,47.91,47.91-21.45,47.91-47.91ZM152.17,207.88c0-26.46-21.45-47.91-47.91-47.91s-47.91,21.45-47.91,47.91,21.45,47.91,47.91,47.91,47.91-21.45,47.91-47.91ZM152.17,303.64c0-26.46-21.45-47.91-47.91-47.91s-47.91,21.45-47.91,47.91,21.45,47.91,47.91,47.91,47.91-21.45,47.91-47.91ZM179.46,143.96c-9.19,0-16.64,7.45-16.64,16.64s7.45,16.64,16.64,16.64,16.64-7.45,16.64-16.64-7.45-16.64-16.64-16.64Z"/>
</svg>