<?xml version="1.0" encoding="UTF-8"?>
<svg id="Camada_1" data-name="Camada 1" xmlns="http://www.w3.org/2000/svg" viewBox="0 0 500 1000">
  <defs>
    <style>
      .cls-1 {
        fill: none;
        fill-rule: evenodd;
        stroke: red;
        stroke-miterlimit: 22.93;
        stroke-width: 2.83px;
      }
    </style>
  </defs>
  <path class="cls-1" d="M80.83,38.31h338.34c29.19,0,53.07,23.53,53.07,52.29v818.81c0,28.76-23.88,52.29-53.07,52.29H80.83c-29.19,0-53.07-23.53-53.07-52.29V90.59c0-28.76,23.88-52.29,53.07-52.29ZM166.03,279.04V119.72c0-28.62-23.2-51.83-51.83-51.83h0c-28.62,0-51.83,23.2-51.83,51.83v159.32c0,28.62,23.2,51.83,51.83,51.83h0c28.62,0,51.83-23.2,51.83-51.83ZM217.65,159.51c0-9.45-7.66-17.11-17.11-17.11s-17.11,7.66-17.11,17.11,7.66,17.11,17.11,17.11,17.11-7.66,17.11-17.11Z"/>
</svg>