<?xml version="1.0" encoding="UTF-8"?>
<svg id="Camada_1" data-name="Camada 1" xmlns="http://www.w3.org/2000/svg" viewBox="0 0 500 1000">
  <defs>
    <style>
      .cls-1 {
        fill: none;
        fill-rule: evenodd;
        stroke: red;
        stroke-miterlimit: 22.93;
        stroke-width: 2.83px;
      }
    </style>
  </defs>
  <path class="cls-1" d="M80.83,21.68h338.34c29.19,0,53.07,24.3,53.07,54.01v845.85c0,29.71-23.88,54.01-53.07,54.01H80.83c-29.19,0-53.07-24.3-53.07-54.01V75.69c0-29.71,23.88-54.01,53.07-54.01ZM195.14,221.85v-126.64c0-15.98-12.96-28.94-28.94-28.94h-65.7c-15.98,0-28.94,12.96-28.94,28.94v126.64c0,15.98,12.96,28.94,28.94,28.94h65.7c15.98,0,28.94-12.96,28.94-28.94Z"/>
</svg>