<?xml version="1.0" encoding="UTF-8"?>
<svg id="Camada_1" data-name="Camada 1" xmlns="http://www.w3.org/2000/svg" viewBox="0 0 500 1000">
  <defs>
    <style>
      .cls-1 {
        fill: none;
        fill-rule: evenodd;
        stroke: red;
        stroke-miterlimit: 22.93;
        stroke-width: 2.83px;
      }
    </style>
  </defs>
  <path class="cls-1" d="M80.83,33.94h338.34c29.19,0,53.07,23.65,53.07,52.57v823.21c0,28.91-23.88,52.57-53.07,52.57H80.83c-29.19,0-53.07-23.65-53.07-52.57V86.5c0-28.91,23.88-52.57,53.07-52.57ZM148.96,107.46c0-26.49-21.48-47.97-47.97-47.97s-47.97,21.48-47.97,47.97,21.48,47.97,47.97,47.97,47.97-21.48,47.97-47.97ZM148.96,203.79c0-26.49-21.48-47.97-47.97-47.97s-47.97,21.48-47.97,47.97,21.48,47.97,47.97,47.97,47.97-21.48,47.97-47.97ZM148.96,300.35c0-26.49-21.48-47.97-47.97-47.97s-47.97,21.48-47.97,47.97,21.48,47.97,47.97,47.97,47.97-21.48,47.97-47.97ZM183.18,90.64c-9.78,0-17.7,7.93-17.7,17.7s7.93,17.7,17.7,17.7,17.7-7.93,17.7-17.7-7.93-17.7-17.7-17.7Z"/>
</svg>