<?xml version="1.0" encoding="UTF-8"?>
<svg id="Camada_1" data-name="Camada 1" xmlns="http://www.w3.org/2000/svg" viewBox="0 0 500 1000">
  <defs>
    <style>
      .cls-1 {
        fill: none;
        stroke: red;
        stroke-miterlimit: 22.93;
        stroke-width: 2.83px;
      }
    </style>
  </defs>
  <path class="cls-1" d="M42.54,42.87h414.92c6.92,0,12.57,5.57,12.57,12.39v889.27c0,6.81-5.66,12.39-12.57,12.39H42.54c-6.92,0-12.57-5.57-12.57-12.39V55.26c0-6.81,5.66-12.39,12.57-12.39ZM160.26,116.9c0-28.73-23.29-52.01-52.01-52.01s-52.01,23.29-52.01,52.01,23.29,52.01,52.01,52.01,52.01-23.29,52.01-52.01ZM160.26,220.86c0-28.73-23.29-52.01-52.01-52.01s-52.01,23.29-52.01,52.01,23.29,52.01,52.01,52.01,52.01-23.29,52.01-52.01ZM160.26,324.82c0-28.73-23.29-52.01-52.01-52.01s-52.01,23.29-52.01,52.01,23.29,52.01,52.01,52.01,52.01-23.29,52.01-52.01ZM235.32,116.61c0-18.08-14.66-32.74-32.74-32.74s-32.74,14.66-32.74,32.74,14.66,32.74,32.74,32.74,32.74-14.66,32.74-32.74ZM235.32,221.29c0-18.08-14.66-32.74-32.74-32.74s-32.74,14.66-32.74,32.74,14.66,32.74,32.74,32.74,32.74-14.66,32.74-32.74ZM219.44,169.71c0-9.85-7.99-17.84-17.84-17.84s-17.84,7.99-17.84,17.84,7.99,17.84,17.84,17.84,17.84-7.99,17.84-17.84Z"/>
</svg>