<?xml version="1.0" encoding="UTF-8"?>
<svg id="Camada_1" data-name="Camada 1" xmlns="http://www.w3.org/2000/svg" viewBox="0 0 500 1000">
  <defs>
    <style>
      .cls-1 {
        fill: none;
        fill-rule: evenodd;
        stroke: red;
        stroke-miterlimit: 22.93;
        stroke-width: 2.83px;
      }
    </style>
  </defs>
  <path class="cls-1" d="M80.83,31.35h338.34c29.19,0,53.07,23.79,53.07,52.87v827.99c0,29.08-23.88,52.87-53.07,52.87H80.83c-29.19,0-53.07-23.79-53.07-52.87V84.23c0-29.08,23.88-52.87,53.07-52.87ZM155.65,109.83c0-28.15-22.82-50.98-50.98-50.98s-50.98,22.82-50.98,50.98,22.82,50.98,50.98,50.98,50.98-22.82,50.98-50.98ZM155.65,211.72c0-28.15-22.82-50.98-50.98-50.98s-50.98,22.82-50.98,50.98,22.82,50.98,50.98,50.98,50.98-22.82,50.98-50.98ZM155.65,313.62c0-28.15-22.82-50.98-50.98-50.98s-50.98,22.82-50.98,50.98,22.82,50.98,50.98,50.98,50.98-22.82,50.98-50.98ZM192.29,143.7c-9.78,0-17.7,7.93-17.7,17.7s7.93,17.7,17.7,17.7,17.7-7.93,17.7-17.7-7.93-17.7-17.7-17.7Z"/>
</svg>