<?xml version="1.0" encoding="UTF-8"?>
<svg id="Camada_1" data-name="Camada 1" xmlns="http://www.w3.org/2000/svg" viewBox="0 0 500 1000">
  <defs>
    <style>
      .cls-1 {
        fill: none;
        fill-rule: evenodd;
        stroke: red;
        stroke-miterlimit: 22.93;
        stroke-width: 2.83px;
      }
    </style>
  </defs>
  <path class="cls-1" d="M81.51,31.35h338.34c29.19,0,53.07,23.88,53.07,53.07v831.15c0,29.19-23.88,53.07-53.07,53.07H81.51c-29.19,0-53.07-23.88-53.07-53.07V84.43c0-29.19,23.88-53.07,53.07-53.07ZM153.12,103.36c0-28.15-22.82-50.98-50.98-50.98s-50.98,22.82-50.98,50.98,22.82,50.98,50.98,50.98,50.98-22.82,50.98-50.98ZM153.12,205.26c0-28.15-22.82-50.98-50.98-50.98s-50.98,22.82-50.98,50.98,22.82,50.98,50.98,50.98,50.98-22.82,50.98-50.98ZM153.12,307.15c0-28.15-22.82-50.98-50.98-50.98s-50.98,22.82-50.98,50.98,22.82,50.98,50.98,50.98,50.98-22.82,50.98-50.98ZM188.5,136.23c-9.78,0-17.7,7.93-17.7,17.7s7.93,17.7,17.7,17.7,17.7-7.93,17.7-17.7-7.93-17.7-17.7-17.7Z"/>
</svg>