<?xml version="1.0" encoding="UTF-8"?>
<svg id="Camada_1" data-name="Camada 1" xmlns="http://www.w3.org/2000/svg" viewBox="0 0 500 1000">
  <defs>
    <style>
      .cls-1 {
        fill: none;
        stroke: red;
        stroke-miterlimit: 22.93;
        stroke-width: 2.83px;
      }
    </style>
  </defs>
  <path class="cls-1" d="M42.54,36.15h414.92c6.92,0,12.57,5.68,12.57,12.62v905.99c0,6.94-5.66,12.62-12.57,12.62H42.54c-6.92,0-12.57-5.68-12.57-12.62V48.77c0-6.94,5.66-12.62,12.57-12.62ZM161.95,113.91c0-29.56-23.97-53.53-53.53-53.53s-53.53,23.97-53.53,53.53,23.97,53.53,53.53,53.53,53.53-23.97,53.53-53.53ZM161.95,220.91c0-29.56-23.97-53.53-53.53-53.53s-53.53,23.97-53.53,53.53,23.97,53.53,53.53,53.53,53.53-23.97,53.53-53.53ZM161.95,327.91c0-29.56-23.97-53.53-53.53-53.53s-53.53,23.97-53.53,53.53,23.97,53.53,53.53,53.53,53.53-23.97,53.53-53.53ZM239.2,113.62c0-18.61-15.09-33.7-33.7-33.7s-33.7,15.09-33.7,33.7,15.09,33.7,33.7,33.7,33.7-15.09,33.7-33.7ZM239.2,221.36c0-18.61-15.09-33.7-33.7-33.7s-33.7,15.09-33.7,33.7,15.09,33.7,33.7,33.7,33.7-15.09,33.7-33.7ZM222.86,168.28c0-10.14-8.22-18.36-18.36-18.36s-18.36,8.22-18.36,18.36,8.22,18.36,18.36,18.36,18.36-8.22,18.36-18.36Z"/>
</svg>